%TF.GenerationSoftware,KiCad,Pcbnew,8.0.5*%
%TF.CreationDate,2025-03-21T11:48:15-04:00*%
%TF.ProjectId,ArduinoRev4Hat,41726475-696e-46f5-9265-76344861742e,rev?*%
%TF.SameCoordinates,Original*%
%TF.FileFunction,Copper,L2,Bot*%
%TF.FilePolarity,Positive*%
%FSLAX46Y46*%
G04 Gerber Fmt 4.6, Leading zero omitted, Abs format (unit mm)*
G04 Created by KiCad (PCBNEW 8.0.5) date 2025-03-21 11:48:15*
%MOMM*%
%LPD*%
G01*
G04 APERTURE LIST*
%TA.AperFunction,ComponentPad*%
%ADD10C,3.216000*%
%TD*%
%TA.AperFunction,ComponentPad*%
%ADD11C,1.950000*%
%TD*%
%TA.AperFunction,ComponentPad*%
%ADD12R,1.700000X1.700000*%
%TD*%
%TA.AperFunction,ComponentPad*%
%ADD13O,1.700000X1.700000*%
%TD*%
%TA.AperFunction,ComponentPad*%
%ADD14O,1.727200X1.727200*%
%TD*%
%TA.AperFunction,ComponentPad*%
%ADD15R,1.727200X1.727200*%
%TD*%
G04 APERTURE END LIST*
D10*
%TO.P,J7,1,1*%
%TO.N,/VM_Z*%
X128400000Y-47500000D03*
D11*
%TO.P,J7,S1*%
%TO.N,N/C*%
X133480000Y-51300000D03*
%TO.P,J7,S2*%
X123320000Y-51300000D03*
%TO.P,J7,S3*%
X123320000Y-41140000D03*
%TO.P,J7,S4*%
X133480000Y-41140000D03*
%TD*%
D12*
%TO.P,J5,1,Pin_1*%
%TO.N,GND*%
X132300000Y-68100000D03*
D13*
%TO.P,J5,2,Pin_2*%
%TO.N,/VM_X*%
X132300000Y-70640000D03*
%TO.P,J5,3,Pin_3*%
%TO.N,/IN1_X*%
X132300000Y-73180000D03*
%TO.P,J5,4,Pin_4*%
%TO.N,/IN2_X*%
X132300000Y-75720000D03*
%TD*%
D10*
%TO.P,J9,1,1*%
%TO.N,GND*%
X196215000Y-47495000D03*
D11*
%TO.P,J9,S1*%
%TO.N,N/C*%
X201295000Y-51295000D03*
%TO.P,J9,S2*%
X191135000Y-51295000D03*
%TO.P,J9,S3*%
X191135000Y-41135000D03*
%TO.P,J9,S4*%
X201295000Y-41135000D03*
%TD*%
D10*
%TO.P,J10,1,1*%
%TO.N,GND*%
X169215000Y-47495000D03*
D11*
%TO.P,J10,S1*%
%TO.N,N/C*%
X174295000Y-51295000D03*
%TO.P,J10,S2*%
X164135000Y-51295000D03*
%TO.P,J10,S3*%
X164135000Y-41135000D03*
%TO.P,J10,S4*%
X174295000Y-41135000D03*
%TD*%
D12*
%TO.P,J4,1,Pin_1*%
%TO.N,GND*%
X132330000Y-89800000D03*
D13*
%TO.P,J4,2,Pin_2*%
%TO.N,/VM_Y*%
X132330000Y-92340000D03*
%TO.P,J4,3,Pin_3*%
%TO.N,/IN1_Y*%
X132330000Y-94880000D03*
%TO.P,J4,4,Pin_4*%
%TO.N,/IN2_Y*%
X132330000Y-97420000D03*
%TD*%
D10*
%TO.P,J8,1,1*%
%TO.N,/VM_Y*%
X141800000Y-47500000D03*
D11*
%TO.P,J8,S1*%
%TO.N,N/C*%
X146880000Y-51300000D03*
%TO.P,J8,S2*%
X136720000Y-51300000D03*
%TO.P,J8,S3*%
X136720000Y-41140000D03*
%TO.P,J8,S4*%
X146880000Y-41140000D03*
%TD*%
D10*
%TO.P,J11,1,1*%
%TO.N,GND*%
X182715000Y-47495000D03*
D11*
%TO.P,J11,S1*%
%TO.N,N/C*%
X187795000Y-51295000D03*
%TO.P,J11,S2*%
X177635000Y-51295000D03*
%TO.P,J11,S3*%
X177635000Y-41135000D03*
%TO.P,J11,S4*%
X187795000Y-41135000D03*
%TD*%
D10*
%TO.P,J6,1,1*%
%TO.N,/VM_X*%
X155400000Y-47500000D03*
D11*
%TO.P,J6,S1*%
%TO.N,N/C*%
X160480000Y-51300000D03*
%TO.P,J6,S2*%
X150320000Y-51300000D03*
%TO.P,J6,S3*%
X150320000Y-41140000D03*
%TO.P,J6,S4*%
X160480000Y-41140000D03*
%TD*%
D12*
%TO.P,J3,1,Pin_1*%
%TO.N,GND*%
X132430000Y-111400000D03*
D13*
%TO.P,J3,2,Pin_2*%
%TO.N,/VM_Z*%
X132430000Y-113940000D03*
%TO.P,J3,3,Pin_3*%
%TO.N,/IN1_Z*%
X132430000Y-116480000D03*
%TO.P,J3,4,Pin_4*%
%TO.N,/IN2_Z*%
X132430000Y-119020000D03*
%TD*%
D14*
%TO.P,A1,3V3,3.3V*%
%TO.N,unconnected-(A1-3.3V-Pad3V3)*%
X138840000Y-96490000D03*
%TO.P,A1,5V1,5V*%
%TO.N,unconnected-(A1-5V-Pad5V1)*%
X138840000Y-99030000D03*
%TO.P,A1,A0,A0*%
%TO.N,unconnected-(A1-PadA0)*%
X138840000Y-111730000D03*
%TO.P,A1,A1,A1*%
%TO.N,unconnected-(A1-PadA1)*%
X138840000Y-114270000D03*
%TO.P,A1,A2,A2*%
%TO.N,unconnected-(A1-PadA2)*%
X138840000Y-116810000D03*
%TO.P,A1,A3,A3*%
%TO.N,unconnected-(A1-PadA3)*%
X138840000Y-119350000D03*
%TO.P,A1,A4,A4*%
%TO.N,unconnected-(A1-PadA4)*%
X138840000Y-121890000D03*
%TO.P,A1,A5,A5*%
%TO.N,unconnected-(A1-PadA5)*%
X138840000Y-124430000D03*
%TO.P,A1,AREF,AREF*%
%TO.N,unconnected-(A1-PadAREF)*%
X187100000Y-84806000D03*
%TO.P,A1,BOOT,BOOT*%
%TO.N,unconnected-(A1-PadBOOT)*%
X138840000Y-88870000D03*
%TO.P,A1,D0,D0/RX*%
%TO.N,unconnected-(A1-D0{slash}RX-PadD0)*%
X187100000Y-124430000D03*
%TO.P,A1,D1,D1/TX*%
%TO.N,unconnected-(A1-D1{slash}TX-PadD1)*%
X187100000Y-121890000D03*
%TO.P,A1,D2,D2*%
%TO.N,unconnected-(A1-PadD2)*%
X187100000Y-119350000D03*
%TO.P,A1,D3,D3*%
%TO.N,/IN1_Z*%
X187100000Y-116810000D03*
%TO.P,A1,D4,D4*%
%TO.N,unconnected-(A1-PadD4)*%
X187100000Y-114270000D03*
%TO.P,A1,D5,D5*%
%TO.N,/IN2_Z*%
X187100000Y-111730000D03*
%TO.P,A1,D6,D6*%
%TO.N,/IN1_Y*%
X187100000Y-109190000D03*
%TO.P,A1,D7,D7*%
%TO.N,unconnected-(A1-PadD7)*%
X187100000Y-106650000D03*
%TO.P,A1,D8,D8*%
%TO.N,unconnected-(A1-PadD8)*%
X187100000Y-102586000D03*
%TO.P,A1,D9,D9*%
%TO.N,/IN2_Y*%
X187100000Y-100046000D03*
%TO.P,A1,D10,D10*%
%TO.N,/IN1_X*%
X187100000Y-97506000D03*
%TO.P,A1,D11,D11*%
%TO.N,/IN2_X*%
X187100000Y-94966000D03*
%TO.P,A1,D12,D12*%
%TO.N,unconnected-(A1-PadD12)*%
X187100000Y-92426000D03*
%TO.P,A1,D13,D13*%
%TO.N,unconnected-(A1-PadD13)*%
X187100000Y-89886000D03*
D15*
%TO.P,A1,GND1,GND*%
%TO.N,GND*%
X187100000Y-87346000D03*
%TO.P,A1,GND2,GND*%
X138840000Y-101570000D03*
%TO.P,A1,GND3,GND*%
%TO.N,unconnected-(A1-GND-PadGND3)*%
X138840000Y-104110000D03*
D14*
%TO.P,A1,IORF,IOREF*%
%TO.N,unconnected-(A1-IOREF-PadIORF)*%
X138840000Y-91410000D03*
%TO.P,A1,RST1,RESET*%
%TO.N,unconnected-(A1-RESET-PadRST1)*%
X138840000Y-93950000D03*
%TO.P,A1,SCL,SCL*%
%TO.N,unconnected-(A1-PadSCL)*%
X187100000Y-79726000D03*
%TO.P,A1,SDA,SDA*%
%TO.N,unconnected-(A1-PadSDA)*%
X187100000Y-82266000D03*
%TO.P,A1,VIN,VIN*%
%TO.N,unconnected-(A1-PadVIN)*%
X138840000Y-106650000D03*
%TD*%
%TA.AperFunction,Conductor*%
%TO.N,GND*%
G36*
X210542539Y-32470185D02*
G01*
X210588294Y-32522989D01*
X210599500Y-32574500D01*
X210599500Y-45976388D01*
X210579815Y-46043427D01*
X210527011Y-46089182D01*
X210457853Y-46099126D01*
X210394297Y-46070101D01*
X210356523Y-46011323D01*
X210351670Y-45982878D01*
X210351330Y-45976388D01*
X210343461Y-45826237D01*
X210286064Y-45463847D01*
X210191101Y-45109442D01*
X210059614Y-44766905D01*
X209893041Y-44439989D01*
X209693210Y-44132275D01*
X209462308Y-43847135D01*
X209202865Y-43587692D01*
X208917725Y-43356790D01*
X208917723Y-43356788D01*
X208610015Y-43156961D01*
X208283098Y-42990387D01*
X207940565Y-42858901D01*
X207940558Y-42858899D01*
X207586153Y-42763936D01*
X207586149Y-42763935D01*
X207586148Y-42763935D01*
X207223764Y-42706539D01*
X206857360Y-42687337D01*
X206857358Y-42687337D01*
X206490953Y-42706539D01*
X206128570Y-42763935D01*
X206128568Y-42763935D01*
X205774152Y-42858901D01*
X205431619Y-42990387D01*
X205104702Y-43156961D01*
X204796994Y-43356788D01*
X204511857Y-43587688D01*
X204511849Y-43587695D01*
X204252413Y-43847131D01*
X204252406Y-43847139D01*
X204021506Y-44132276D01*
X203821679Y-44439984D01*
X203655105Y-44766901D01*
X203523619Y-45109434D01*
X203428653Y-45463850D01*
X203428653Y-45463852D01*
X203371257Y-45826235D01*
X203364486Y-45955432D01*
X203352055Y-46192641D01*
X203371257Y-46559045D01*
X203428654Y-46921435D01*
X203430896Y-46929804D01*
X203523619Y-47275847D01*
X203655105Y-47618380D01*
X203821679Y-47945297D01*
X204021506Y-48253005D01*
X204169534Y-48435804D01*
X204252410Y-48538147D01*
X204511853Y-48797590D01*
X204511857Y-48797593D01*
X204796994Y-49028493D01*
X205093737Y-49221199D01*
X205104707Y-49228323D01*
X205431623Y-49394896D01*
X205774160Y-49526383D01*
X206128565Y-49621346D01*
X206490955Y-49678743D01*
X206837093Y-49696882D01*
X206857358Y-49697945D01*
X206857359Y-49697945D01*
X206857360Y-49697945D01*
X206876562Y-49696938D01*
X207223763Y-49678743D01*
X207586153Y-49621346D01*
X207940558Y-49526383D01*
X208283095Y-49394896D01*
X208610011Y-49228323D01*
X208917725Y-49028492D01*
X209202865Y-48797590D01*
X209462308Y-48538147D01*
X209693210Y-48253007D01*
X209893041Y-47945293D01*
X210059614Y-47618377D01*
X210191101Y-47275840D01*
X210286064Y-46921435D01*
X210343461Y-46559045D01*
X210351670Y-46402402D01*
X210374836Y-46336486D01*
X210429962Y-46293557D01*
X210499546Y-46287247D01*
X210561496Y-46319558D01*
X210596142Y-46380233D01*
X210599500Y-46408893D01*
X210599500Y-131591106D01*
X210579815Y-131658145D01*
X210527011Y-131703900D01*
X210457853Y-131713844D01*
X210394297Y-131684819D01*
X210356523Y-131626041D01*
X210351670Y-131597596D01*
X210351330Y-131591106D01*
X210343461Y-131440955D01*
X210286064Y-131078565D01*
X210191101Y-130724160D01*
X210059614Y-130381623D01*
X209893041Y-130054707D01*
X209693210Y-129746993D01*
X209462308Y-129461853D01*
X209202865Y-129202410D01*
X209170369Y-129176095D01*
X208917723Y-128971506D01*
X208610015Y-128771679D01*
X208283098Y-128605105D01*
X207940565Y-128473619D01*
X207940558Y-128473617D01*
X207586153Y-128378654D01*
X207586149Y-128378653D01*
X207586148Y-128378653D01*
X207223764Y-128321257D01*
X206857360Y-128302055D01*
X206857358Y-128302055D01*
X206490953Y-128321257D01*
X206128570Y-128378653D01*
X206128568Y-128378653D01*
X205774152Y-128473619D01*
X205431619Y-128605105D01*
X205104702Y-128771679D01*
X204796994Y-128971506D01*
X204511857Y-129202406D01*
X204511849Y-129202413D01*
X204252413Y-129461849D01*
X204252406Y-129461857D01*
X204021506Y-129746994D01*
X203821679Y-130054702D01*
X203655105Y-130381619D01*
X203523619Y-130724152D01*
X203428653Y-131078568D01*
X203428653Y-131078570D01*
X203371257Y-131440953D01*
X203352055Y-131807358D01*
X203352055Y-131807359D01*
X203371257Y-132173764D01*
X203428653Y-132536147D01*
X203428653Y-132536149D01*
X203523619Y-132890565D01*
X203655105Y-133233098D01*
X203821679Y-133560015D01*
X204021506Y-133867723D01*
X204021508Y-133867725D01*
X204252410Y-134152865D01*
X204511853Y-134412308D01*
X204511857Y-134412311D01*
X204796994Y-134643211D01*
X205104702Y-134843038D01*
X205104707Y-134843041D01*
X205431623Y-135009614D01*
X205774160Y-135141101D01*
X206128565Y-135236064D01*
X206490955Y-135293461D01*
X206647596Y-135301670D01*
X206713513Y-135324836D01*
X206756442Y-135379962D01*
X206762752Y-135449546D01*
X206730441Y-135511496D01*
X206669766Y-135546142D01*
X206641106Y-135549500D01*
X117858894Y-135549500D01*
X117791855Y-135529815D01*
X117746100Y-135477011D01*
X117736156Y-135407853D01*
X117765181Y-135344297D01*
X117823959Y-135306523D01*
X117852403Y-135301670D01*
X118009045Y-135293461D01*
X118371435Y-135236064D01*
X118725840Y-135141101D01*
X119068377Y-135009614D01*
X119395293Y-134843041D01*
X119703007Y-134643210D01*
X119988147Y-134412308D01*
X120247590Y-134152865D01*
X120478492Y-133867725D01*
X120678323Y-133560011D01*
X120844896Y-133233095D01*
X120976383Y-132890558D01*
X121071346Y-132536153D01*
X121128743Y-132173763D01*
X121147945Y-131807359D01*
X121128743Y-131440955D01*
X121071346Y-131078565D01*
X120976383Y-130724160D01*
X120844896Y-130381623D01*
X120678323Y-130054707D01*
X120478492Y-129746993D01*
X120247590Y-129461853D01*
X119988147Y-129202410D01*
X119955651Y-129176095D01*
X119703005Y-128971506D01*
X119395297Y-128771679D01*
X119068380Y-128605105D01*
X118725847Y-128473619D01*
X118725840Y-128473617D01*
X118371435Y-128378654D01*
X118371431Y-128378653D01*
X118371430Y-128378653D01*
X118009046Y-128321257D01*
X117642642Y-128302055D01*
X117642640Y-128302055D01*
X117276235Y-128321257D01*
X116913852Y-128378653D01*
X116913850Y-128378653D01*
X116559434Y-128473619D01*
X116216901Y-128605105D01*
X115889984Y-128771679D01*
X115582276Y-128971506D01*
X115297139Y-129202406D01*
X115297131Y-129202413D01*
X115037695Y-129461849D01*
X115037688Y-129461857D01*
X114806788Y-129746994D01*
X114606961Y-130054702D01*
X114440387Y-130381619D01*
X114308901Y-130724152D01*
X114213935Y-131078568D01*
X114213935Y-131078570D01*
X114156539Y-131440953D01*
X114148330Y-131597596D01*
X114125164Y-131663513D01*
X114070038Y-131706442D01*
X114000454Y-131712752D01*
X113938504Y-131680441D01*
X113903858Y-131619766D01*
X113900500Y-131591106D01*
X113900500Y-113939999D01*
X131074341Y-113939999D01*
X131074341Y-113940000D01*
X131094936Y-114175403D01*
X131094938Y-114175413D01*
X131156094Y-114403655D01*
X131156096Y-114403659D01*
X131156097Y-114403663D01*
X131198823Y-114495289D01*
X131255965Y-114617830D01*
X131255967Y-114617834D01*
X131391501Y-114811395D01*
X131391506Y-114811402D01*
X131558597Y-114978493D01*
X131558603Y-114978498D01*
X131744158Y-115108425D01*
X131787783Y-115163002D01*
X131794977Y-115232500D01*
X131763454Y-115294855D01*
X131744158Y-115311575D01*
X131558597Y-115441505D01*
X131391505Y-115608597D01*
X131255965Y-115802169D01*
X131255964Y-115802171D01*
X131156098Y-116016335D01*
X131156094Y-116016344D01*
X131094938Y-116244586D01*
X131094936Y-116244596D01*
X131074341Y-116479999D01*
X131074341Y-116480000D01*
X131094936Y-116715403D01*
X131094938Y-116715413D01*
X131156094Y-116943655D01*
X131156096Y-116943659D01*
X131156097Y-116943663D01*
X131198823Y-117035289D01*
X131255965Y-117157830D01*
X131255967Y-117157834D01*
X131391501Y-117351395D01*
X131391506Y-117351402D01*
X131558597Y-117518493D01*
X131558603Y-117518498D01*
X131744158Y-117648425D01*
X131787783Y-117703002D01*
X131794977Y-117772500D01*
X131763454Y-117834855D01*
X131744158Y-117851575D01*
X131558597Y-117981505D01*
X131391505Y-118148597D01*
X131255965Y-118342169D01*
X131255964Y-118342171D01*
X131156098Y-118556335D01*
X131156094Y-118556344D01*
X131094938Y-118784586D01*
X131094936Y-118784596D01*
X131074341Y-119019999D01*
X131074341Y-119020000D01*
X131094936Y-119255403D01*
X131094938Y-119255413D01*
X131156094Y-119483655D01*
X131156096Y-119483659D01*
X131156097Y-119483663D01*
X131198823Y-119575289D01*
X131255965Y-119697830D01*
X131255967Y-119697834D01*
X131323611Y-119794439D01*
X131391505Y-119891401D01*
X131558599Y-120058495D01*
X131655384Y-120126265D01*
X131752165Y-120194032D01*
X131752167Y-120194033D01*
X131752170Y-120194035D01*
X131966337Y-120293903D01*
X132194592Y-120355063D01*
X132382918Y-120371539D01*
X132429999Y-120375659D01*
X132430000Y-120375659D01*
X132430001Y-120375659D01*
X132469234Y-120372226D01*
X132665408Y-120355063D01*
X132893663Y-120293903D01*
X133107830Y-120194035D01*
X133301401Y-120058495D01*
X133468495Y-119891401D01*
X133604035Y-119697830D01*
X133703903Y-119483663D01*
X133765063Y-119255408D01*
X133785659Y-119020000D01*
X133765063Y-118784592D01*
X133703903Y-118556337D01*
X133604035Y-118342171D01*
X133507362Y-118204106D01*
X133468494Y-118148597D01*
X133301402Y-117981506D01*
X133301396Y-117981501D01*
X133115842Y-117851575D01*
X133072217Y-117796998D01*
X133065023Y-117727500D01*
X133096546Y-117665145D01*
X133115842Y-117648425D01*
X133138026Y-117632891D01*
X133301401Y-117518495D01*
X133468495Y-117351401D01*
X133604035Y-117157830D01*
X133703903Y-116943663D01*
X133765063Y-116715408D01*
X133785659Y-116480000D01*
X133765063Y-116244592D01*
X133703903Y-116016337D01*
X133604035Y-115802171D01*
X133507362Y-115664106D01*
X133468494Y-115608597D01*
X133301402Y-115441506D01*
X133301396Y-115441501D01*
X133115842Y-115311575D01*
X133072217Y-115256998D01*
X133065023Y-115187500D01*
X133096546Y-115125145D01*
X133115842Y-115108425D01*
X133138026Y-115092891D01*
X133301401Y-114978495D01*
X133468495Y-114811401D01*
X133604035Y-114617830D01*
X133703903Y-114403663D01*
X133765063Y-114175408D01*
X133785659Y-113940000D01*
X133765063Y-113704592D01*
X133703903Y-113476337D01*
X133604035Y-113262171D01*
X133507361Y-113124106D01*
X133468496Y-113068600D01*
X133408278Y-113008382D01*
X133346179Y-112946283D01*
X133312696Y-112884963D01*
X133317680Y-112815271D01*
X133359551Y-112759337D01*
X133390529Y-112742422D01*
X133522086Y-112693354D01*
X133522093Y-112693350D01*
X133637187Y-112607190D01*
X133637190Y-112607187D01*
X133723350Y-112492093D01*
X133723354Y-112492086D01*
X133773596Y-112357379D01*
X133773598Y-112357372D01*
X133779999Y-112297844D01*
X133780000Y-112297827D01*
X133780000Y-111729993D01*
X137471225Y-111729993D01*
X137471225Y-111730006D01*
X137489892Y-111955289D01*
X137545388Y-112174439D01*
X137636198Y-112381466D01*
X137759842Y-112570716D01*
X137759850Y-112570727D01*
X137912950Y-112737036D01*
X137912954Y-112737040D01*
X138091351Y-112875893D01*
X138108111Y-112884963D01*
X138119165Y-112890945D01*
X138168755Y-112940165D01*
X138183863Y-113008382D01*
X138159692Y-113073937D01*
X138119165Y-113109055D01*
X138091352Y-113124106D01*
X137912955Y-113262959D01*
X137912950Y-113262963D01*
X137759850Y-113429272D01*
X137759842Y-113429283D01*
X137636198Y-113618533D01*
X137545388Y-113825560D01*
X137489892Y-114044710D01*
X137471225Y-114269993D01*
X137471225Y-114270006D01*
X137489892Y-114495289D01*
X137545388Y-114714439D01*
X137636198Y-114921466D01*
X137759842Y-115110716D01*
X137759850Y-115110727D01*
X137894504Y-115256998D01*
X137912954Y-115277040D01*
X138091351Y-115415893D01*
X138119165Y-115430945D01*
X138168755Y-115480165D01*
X138183863Y-115548382D01*
X138159692Y-115613937D01*
X138119165Y-115649055D01*
X138091352Y-115664106D01*
X137912955Y-115802959D01*
X137912950Y-115802963D01*
X137759850Y-115969272D01*
X137759842Y-115969283D01*
X137636198Y-116158533D01*
X137545388Y-116365560D01*
X137489892Y-116584710D01*
X137471225Y-116809993D01*
X137471225Y-116810006D01*
X137489892Y-117035289D01*
X137545388Y-117254439D01*
X137636198Y-117461466D01*
X137759842Y-117650716D01*
X137759850Y-117650727D01*
X137894504Y-117796998D01*
X137912954Y-117817040D01*
X138091351Y-117955893D01*
X138119165Y-117970945D01*
X138168755Y-118020165D01*
X138183863Y-118088382D01*
X138159692Y-118153937D01*
X138119165Y-118189055D01*
X138091352Y-118204106D01*
X137912955Y-118342959D01*
X137912950Y-118342963D01*
X137759850Y-118509272D01*
X137759842Y-118509283D01*
X137636198Y-118698533D01*
X137545388Y-118905560D01*
X137489892Y-119124710D01*
X137471225Y-119349993D01*
X137471225Y-119350006D01*
X137489892Y-119575289D01*
X137545388Y-119794439D01*
X137636198Y-120001466D01*
X137759842Y-120190716D01*
X137759850Y-120190727D01*
X137911132Y-120355061D01*
X137912954Y-120357040D01*
X138091351Y-120495893D01*
X138119165Y-120510945D01*
X138168755Y-120560165D01*
X138183863Y-120628382D01*
X138159692Y-120693937D01*
X138119165Y-120729055D01*
X138091352Y-120744106D01*
X137912955Y-120882959D01*
X137912950Y-120882963D01*
X137759850Y-121049272D01*
X137759842Y-121049283D01*
X137636198Y-121238533D01*
X137545388Y-121445560D01*
X137489892Y-121664710D01*
X137471225Y-121889993D01*
X137471225Y-121890006D01*
X137489892Y-122115289D01*
X137545388Y-122334439D01*
X137636198Y-122541466D01*
X137759842Y-122730716D01*
X137759850Y-122730727D01*
X137912950Y-122897036D01*
X137912954Y-122897040D01*
X138091351Y-123035893D01*
X138119165Y-123050945D01*
X138168755Y-123100165D01*
X138183863Y-123168382D01*
X138159692Y-123233937D01*
X138119165Y-123269055D01*
X138091352Y-123284106D01*
X137912955Y-123422959D01*
X137912950Y-123422963D01*
X137759850Y-123589272D01*
X137759842Y-123589283D01*
X137636198Y-123778533D01*
X137545388Y-123985560D01*
X137489892Y-124204710D01*
X137471225Y-124429993D01*
X137471225Y-124430006D01*
X137489892Y-124655289D01*
X137545388Y-124874439D01*
X137636198Y-125081466D01*
X137759842Y-125270716D01*
X137759850Y-125270727D01*
X137912950Y-125437036D01*
X137912954Y-125437040D01*
X138091351Y-125575893D01*
X138290169Y-125683488D01*
X138290172Y-125683489D01*
X138503982Y-125756890D01*
X138503984Y-125756890D01*
X138503986Y-125756891D01*
X138726967Y-125794100D01*
X138726968Y-125794100D01*
X138953032Y-125794100D01*
X138953033Y-125794100D01*
X139176014Y-125756891D01*
X139389831Y-125683488D01*
X139588649Y-125575893D01*
X139767046Y-125437040D01*
X139920156Y-125270719D01*
X140043802Y-125081465D01*
X140134611Y-124874441D01*
X140190107Y-124655293D01*
X140208775Y-124430000D01*
X140208775Y-124429993D01*
X140190107Y-124204710D01*
X140190107Y-124204707D01*
X140134611Y-123985559D01*
X140043802Y-123778535D01*
X139920156Y-123589281D01*
X139920153Y-123589278D01*
X139920149Y-123589272D01*
X139767049Y-123422963D01*
X139767048Y-123422962D01*
X139767046Y-123422960D01*
X139588649Y-123284107D01*
X139588647Y-123284106D01*
X139588646Y-123284105D01*
X139588639Y-123284100D01*
X139560836Y-123269055D01*
X139511244Y-123219837D01*
X139496135Y-123151620D01*
X139520306Y-123086064D01*
X139560836Y-123050945D01*
X139588639Y-123035899D01*
X139588642Y-123035896D01*
X139588649Y-123035893D01*
X139767046Y-122897040D01*
X139920156Y-122730719D01*
X140043802Y-122541465D01*
X140134611Y-122334441D01*
X140190107Y-122115293D01*
X140208775Y-121890000D01*
X140208775Y-121889993D01*
X140190107Y-121664710D01*
X140190107Y-121664707D01*
X140134611Y-121445559D01*
X140043802Y-121238535D01*
X139920156Y-121049281D01*
X139920153Y-121049278D01*
X139920149Y-121049272D01*
X139767049Y-120882963D01*
X139767048Y-120882962D01*
X139767046Y-120882960D01*
X139588649Y-120744107D01*
X139588647Y-120744106D01*
X139588646Y-120744105D01*
X139588639Y-120744100D01*
X139560836Y-120729055D01*
X139511244Y-120679837D01*
X139496135Y-120611620D01*
X139520306Y-120546064D01*
X139560836Y-120510945D01*
X139588639Y-120495899D01*
X139588642Y-120495896D01*
X139588649Y-120495893D01*
X139767046Y-120357040D01*
X139866832Y-120248643D01*
X139920149Y-120190727D01*
X139920150Y-120190725D01*
X139920156Y-120190719D01*
X140043802Y-120001465D01*
X140134611Y-119794441D01*
X140190107Y-119575293D01*
X140208775Y-119350000D01*
X140208775Y-119349993D01*
X140190107Y-119124710D01*
X140190107Y-119124707D01*
X140134611Y-118905559D01*
X140043802Y-118698535D01*
X139920156Y-118509281D01*
X139920153Y-118509278D01*
X139920149Y-118509272D01*
X139767049Y-118342963D01*
X139767048Y-118342962D01*
X139767046Y-118342960D01*
X139588649Y-118204107D01*
X139588647Y-118204106D01*
X139588646Y-118204105D01*
X139588639Y-118204100D01*
X139560836Y-118189055D01*
X139511244Y-118139837D01*
X139496135Y-118071620D01*
X139520306Y-118006064D01*
X139560836Y-117970945D01*
X139588639Y-117955899D01*
X139588642Y-117955896D01*
X139588649Y-117955893D01*
X139767046Y-117817040D01*
X139906876Y-117665145D01*
X139920149Y-117650727D01*
X139920150Y-117650725D01*
X139920156Y-117650719D01*
X140043802Y-117461465D01*
X140134611Y-117254441D01*
X140190107Y-117035293D01*
X140208775Y-116810000D01*
X140208775Y-116809993D01*
X140190107Y-116584710D01*
X140190107Y-116584707D01*
X140134611Y-116365559D01*
X140043802Y-116158535D01*
X139920156Y-115969281D01*
X139920153Y-115969278D01*
X139920149Y-115969272D01*
X139767049Y-115802963D01*
X139767048Y-115802962D01*
X139767046Y-115802960D01*
X139588649Y-115664107D01*
X139588647Y-115664106D01*
X139588646Y-115664105D01*
X139588639Y-115664100D01*
X139560836Y-115649055D01*
X139511244Y-115599837D01*
X139496135Y-115531620D01*
X139520306Y-115466064D01*
X139560836Y-115430945D01*
X139588639Y-115415899D01*
X139588642Y-115415896D01*
X139588649Y-115415893D01*
X139767046Y-115277040D01*
X139906876Y-115125145D01*
X139920149Y-115110727D01*
X139920150Y-115110725D01*
X139920156Y-115110719D01*
X140043802Y-114921465D01*
X140134611Y-114714441D01*
X140190107Y-114495293D01*
X140208775Y-114270000D01*
X140208775Y-114269993D01*
X140190107Y-114044710D01*
X140190107Y-114044707D01*
X140134611Y-113825559D01*
X140043802Y-113618535D01*
X139920156Y-113429281D01*
X139920153Y-113429278D01*
X139920149Y-113429272D01*
X139767049Y-113262963D01*
X139767048Y-113262962D01*
X139767046Y-113262960D01*
X139588649Y-113124107D01*
X139588647Y-113124106D01*
X139588646Y-113124105D01*
X139588639Y-113124100D01*
X139560836Y-113109055D01*
X139511244Y-113059837D01*
X139496135Y-112991620D01*
X139520306Y-112926064D01*
X139560836Y-112890945D01*
X139588639Y-112875899D01*
X139588642Y-112875896D01*
X139588649Y-112875893D01*
X139767046Y-112737040D01*
X139920156Y-112570719D01*
X140043802Y-112381465D01*
X140134611Y-112174441D01*
X140190107Y-111955293D01*
X140208775Y-111730000D01*
X140208775Y-111729993D01*
X140190107Y-111504710D01*
X140190107Y-111504707D01*
X140134611Y-111285559D01*
X140043802Y-111078535D01*
X139920156Y-110889281D01*
X139920153Y-110889278D01*
X139920149Y-110889272D01*
X139767049Y-110722963D01*
X139767048Y-110722962D01*
X139767046Y-110722960D01*
X139588649Y-110584107D01*
X139469889Y-110519837D01*
X139389832Y-110476512D01*
X139389827Y-110476510D01*
X139176017Y-110403109D01*
X139008778Y-110375202D01*
X138953033Y-110365900D01*
X138726967Y-110365900D01*
X138682370Y-110373341D01*
X138503982Y-110403109D01*
X138290172Y-110476510D01*
X138290167Y-110476512D01*
X138091352Y-110584106D01*
X137912955Y-110722959D01*
X137912950Y-110722963D01*
X137759850Y-110889272D01*
X137759842Y-110889283D01*
X137636198Y-111078533D01*
X137545388Y-111285560D01*
X137489892Y-111504710D01*
X137471225Y-111729993D01*
X133780000Y-111729993D01*
X133780000Y-111650000D01*
X132863012Y-111650000D01*
X132895925Y-111592993D01*
X132930000Y-111465826D01*
X132930000Y-111334174D01*
X132895925Y-111207007D01*
X132863012Y-111150000D01*
X133780000Y-111150000D01*
X133780000Y-110502172D01*
X133779999Y-110502155D01*
X133773598Y-110442627D01*
X133773596Y-110442620D01*
X133723354Y-110307913D01*
X133723350Y-110307906D01*
X133637190Y-110192812D01*
X133637187Y-110192809D01*
X133522093Y-110106649D01*
X133522086Y-110106645D01*
X133387379Y-110056403D01*
X133387372Y-110056401D01*
X133327844Y-110050000D01*
X132680000Y-110050000D01*
X132680000Y-110966988D01*
X132622993Y-110934075D01*
X132495826Y-110900000D01*
X132364174Y-110900000D01*
X132237007Y-110934075D01*
X132180000Y-110966988D01*
X132180000Y-110050000D01*
X131532155Y-110050000D01*
X131472627Y-110056401D01*
X131472620Y-110056403D01*
X131337913Y-110106645D01*
X131337906Y-110106649D01*
X131222812Y-110192809D01*
X131222809Y-110192812D01*
X131136649Y-110307906D01*
X131136645Y-110307913D01*
X131086403Y-110442620D01*
X131086401Y-110442627D01*
X131080000Y-110502155D01*
X131080000Y-111150000D01*
X131996988Y-111150000D01*
X131964075Y-111207007D01*
X131930000Y-111334174D01*
X131930000Y-111465826D01*
X131964075Y-111592993D01*
X131996988Y-111650000D01*
X131080000Y-111650000D01*
X131080000Y-112297844D01*
X131086401Y-112357372D01*
X131086403Y-112357379D01*
X131136645Y-112492086D01*
X131136649Y-112492093D01*
X131222809Y-112607187D01*
X131222812Y-112607190D01*
X131337906Y-112693350D01*
X131337913Y-112693354D01*
X131469470Y-112742421D01*
X131525403Y-112784292D01*
X131549821Y-112849756D01*
X131534970Y-112918029D01*
X131513819Y-112946284D01*
X131391503Y-113068600D01*
X131255965Y-113262169D01*
X131255964Y-113262171D01*
X131156098Y-113476335D01*
X131156094Y-113476344D01*
X131094938Y-113704586D01*
X131094936Y-113704596D01*
X131074341Y-113939999D01*
X113900500Y-113939999D01*
X113900500Y-92339999D01*
X130974341Y-92339999D01*
X130974341Y-92340000D01*
X130994936Y-92575403D01*
X130994938Y-92575413D01*
X131056094Y-92803655D01*
X131056096Y-92803659D01*
X131056097Y-92803663D01*
X131121054Y-92942963D01*
X131155965Y-93017830D01*
X131155967Y-93017834D01*
X131291501Y-93211395D01*
X131291506Y-93211402D01*
X131458597Y-93378493D01*
X131458603Y-93378498D01*
X131644158Y-93508425D01*
X131687783Y-93563002D01*
X131694977Y-93632500D01*
X131663454Y-93694855D01*
X131644158Y-93711575D01*
X131458597Y-93841505D01*
X131291505Y-94008597D01*
X131155965Y-94202169D01*
X131155964Y-94202171D01*
X131056098Y-94416335D01*
X131056094Y-94416344D01*
X130994938Y-94644586D01*
X130994936Y-94644596D01*
X130974341Y-94879999D01*
X130974341Y-94880000D01*
X130994936Y-95115403D01*
X130994938Y-95115413D01*
X131056094Y-95343655D01*
X131056096Y-95343659D01*
X131056097Y-95343663D01*
X131121054Y-95482963D01*
X131155965Y-95557830D01*
X131155967Y-95557834D01*
X131291501Y-95751395D01*
X131291506Y-95751402D01*
X131458597Y-95918493D01*
X131458603Y-95918498D01*
X131644158Y-96048425D01*
X131687783Y-96103002D01*
X131694977Y-96172500D01*
X131663454Y-96234855D01*
X131644158Y-96251575D01*
X131458597Y-96381505D01*
X131291505Y-96548597D01*
X131155965Y-96742169D01*
X131155964Y-96742171D01*
X131056098Y-96956335D01*
X131056094Y-96956344D01*
X130994938Y-97184586D01*
X130994936Y-97184596D01*
X130974341Y-97419999D01*
X130974341Y-97420000D01*
X130994936Y-97655403D01*
X130994938Y-97655413D01*
X131056094Y-97883655D01*
X131056096Y-97883659D01*
X131056097Y-97883663D01*
X131121054Y-98022963D01*
X131155965Y-98097830D01*
X131155967Y-98097834D01*
X131220001Y-98189283D01*
X131291505Y-98291401D01*
X131458599Y-98458495D01*
X131536492Y-98513036D01*
X131652165Y-98594032D01*
X131652167Y-98594033D01*
X131652170Y-98594035D01*
X131866337Y-98693903D01*
X131866343Y-98693904D01*
X131866344Y-98693905D01*
X131921285Y-98708626D01*
X132094592Y-98755063D01*
X132282918Y-98771539D01*
X132329999Y-98775659D01*
X132330000Y-98775659D01*
X132330001Y-98775659D01*
X132369234Y-98772226D01*
X132565408Y-98755063D01*
X132793663Y-98693903D01*
X133007830Y-98594035D01*
X133201401Y-98458495D01*
X133368495Y-98291401D01*
X133504035Y-98097830D01*
X133603903Y-97883663D01*
X133665063Y-97655408D01*
X133685659Y-97420000D01*
X133665063Y-97184592D01*
X133603903Y-96956337D01*
X133504035Y-96742171D01*
X133485213Y-96715289D01*
X133368494Y-96548597D01*
X133201402Y-96381506D01*
X133201396Y-96381501D01*
X133015842Y-96251575D01*
X132972217Y-96196998D01*
X132965023Y-96127500D01*
X132996546Y-96065145D01*
X133015842Y-96048425D01*
X133038026Y-96032891D01*
X133201401Y-95918495D01*
X133368495Y-95751401D01*
X133504035Y-95557830D01*
X133603903Y-95343663D01*
X133665063Y-95115408D01*
X133685659Y-94880000D01*
X133665063Y-94644592D01*
X133603903Y-94416337D01*
X133504035Y-94202171D01*
X133485213Y-94175289D01*
X133368494Y-94008597D01*
X133201402Y-93841506D01*
X133201396Y-93841501D01*
X133015842Y-93711575D01*
X132972217Y-93656998D01*
X132965023Y-93587500D01*
X132996546Y-93525145D01*
X133015842Y-93508425D01*
X133038026Y-93492891D01*
X133201401Y-93378495D01*
X133368495Y-93211401D01*
X133504035Y-93017830D01*
X133603903Y-92803663D01*
X133665063Y-92575408D01*
X133685659Y-92340000D01*
X133665063Y-92104592D01*
X133603903Y-91876337D01*
X133504035Y-91662171D01*
X133450196Y-91585281D01*
X133368496Y-91468600D01*
X133309889Y-91409993D01*
X133246179Y-91346283D01*
X133212696Y-91284963D01*
X133217680Y-91215271D01*
X133259551Y-91159337D01*
X133290529Y-91142422D01*
X133422086Y-91093354D01*
X133422093Y-91093350D01*
X133537187Y-91007190D01*
X133537190Y-91007187D01*
X133623350Y-90892093D01*
X133623354Y-90892086D01*
X133673596Y-90757379D01*
X133673598Y-90757372D01*
X133679999Y-90697844D01*
X133680000Y-90697827D01*
X133680000Y-90050000D01*
X132763012Y-90050000D01*
X132795925Y-89992993D01*
X132830000Y-89865826D01*
X132830000Y-89734174D01*
X132795925Y-89607007D01*
X132763012Y-89550000D01*
X133680000Y-89550000D01*
X133680000Y-88902172D01*
X133679999Y-88902155D01*
X133676541Y-88869993D01*
X137471225Y-88869993D01*
X137471225Y-88870006D01*
X137489892Y-89095289D01*
X137545388Y-89314439D01*
X137636198Y-89521466D01*
X137759842Y-89710716D01*
X137759850Y-89710727D01*
X137912950Y-89877036D01*
X137912954Y-89877040D01*
X138091351Y-90015893D01*
X138119165Y-90030945D01*
X138168755Y-90080165D01*
X138183863Y-90148382D01*
X138159692Y-90213937D01*
X138119165Y-90249055D01*
X138091352Y-90264106D01*
X137912955Y-90402959D01*
X137912950Y-90402963D01*
X137759850Y-90569272D01*
X137759842Y-90569283D01*
X137636198Y-90758533D01*
X137545388Y-90965560D01*
X137489892Y-91184710D01*
X137471225Y-91409993D01*
X137471225Y-91410006D01*
X137489892Y-91635289D01*
X137545388Y-91854439D01*
X137636198Y-92061466D01*
X137759842Y-92250716D01*
X137759850Y-92250727D01*
X137842032Y-92339999D01*
X137912954Y-92417040D01*
X138091351Y-92555893D01*
X138119165Y-92570945D01*
X138168755Y-92620165D01*
X138183863Y-92688382D01*
X138159692Y-92753937D01*
X138119165Y-92789055D01*
X138091352Y-92804106D01*
X137912955Y-92942959D01*
X137912950Y-92942963D01*
X137759850Y-93109272D01*
X137759842Y-93109283D01*
X137636198Y-93298533D01*
X137545388Y-93505560D01*
X137489892Y-93724710D01*
X137471225Y-93949993D01*
X137471225Y-93950006D01*
X137489892Y-94175289D01*
X137545388Y-94394439D01*
X137636198Y-94601466D01*
X137759842Y-94790716D01*
X137759850Y-94790727D01*
X137842032Y-94879999D01*
X137912954Y-94957040D01*
X138091351Y-95095893D01*
X138119165Y-95110945D01*
X138168755Y-95160165D01*
X138183863Y-95228382D01*
X138159692Y-95293937D01*
X138119165Y-95329055D01*
X138091352Y-95344106D01*
X137912955Y-95482959D01*
X137912950Y-95482963D01*
X137759850Y-95649272D01*
X137759842Y-95649283D01*
X137636198Y-95838533D01*
X137545388Y-96045560D01*
X137489892Y-96264710D01*
X137471225Y-96489993D01*
X137471225Y-96490006D01*
X137489892Y-96715289D01*
X137545388Y-96934439D01*
X137636198Y-97141466D01*
X137759842Y-97330716D01*
X137759850Y-97330727D01*
X137842032Y-97419999D01*
X137912954Y-97497040D01*
X138091351Y-97635893D01*
X138119165Y-97650945D01*
X138168755Y-97700165D01*
X138183863Y-97768382D01*
X138159692Y-97833937D01*
X138119165Y-97869055D01*
X138091352Y-97884106D01*
X137912955Y-98022959D01*
X137912950Y-98022963D01*
X137759850Y-98189272D01*
X137759842Y-98189283D01*
X137636198Y-98378533D01*
X137545388Y-98585560D01*
X137489892Y-98804710D01*
X137471225Y-99029993D01*
X137471225Y-99030006D01*
X137489892Y-99255289D01*
X137545388Y-99474439D01*
X137636198Y-99681466D01*
X137727169Y-99820707D01*
X137759844Y-99870719D01*
X137897245Y-100019976D01*
X137928167Y-100082629D01*
X137920307Y-100152055D01*
X137876160Y-100206211D01*
X137849349Y-100220140D01*
X137734311Y-100263046D01*
X137734306Y-100263049D01*
X137619212Y-100349209D01*
X137619209Y-100349212D01*
X137533049Y-100464306D01*
X137533045Y-100464313D01*
X137482803Y-100599020D01*
X137482801Y-100599027D01*
X137476400Y-100658555D01*
X137476400Y-101320000D01*
X138397749Y-101320000D01*
X138366619Y-101373919D01*
X138332000Y-101503120D01*
X138332000Y-101636880D01*
X138366619Y-101766081D01*
X138397749Y-101820000D01*
X137476400Y-101820000D01*
X137476400Y-102481444D01*
X137482801Y-102540972D01*
X137482803Y-102540979D01*
X137533045Y-102675686D01*
X137533046Y-102675688D01*
X137600109Y-102765272D01*
X137624526Y-102830736D01*
X137609675Y-102899009D01*
X137600109Y-102913894D01*
X137532604Y-103004069D01*
X137532602Y-103004071D01*
X137482308Y-103138917D01*
X137475901Y-103198516D01*
X137475901Y-103198523D01*
X137475900Y-103198535D01*
X137475900Y-105021470D01*
X137475901Y-105021476D01*
X137482308Y-105081083D01*
X137532602Y-105215928D01*
X137532606Y-105215935D01*
X137618852Y-105331144D01*
X137618855Y-105331147D01*
X137734064Y-105417393D01*
X137734071Y-105417397D01*
X137848983Y-105460256D01*
X137904916Y-105502127D01*
X137929334Y-105567591D01*
X137914483Y-105635864D01*
X137896880Y-105660421D01*
X137759845Y-105809279D01*
X137759842Y-105809283D01*
X137636198Y-105998533D01*
X137545388Y-106205560D01*
X137489892Y-106424710D01*
X137471225Y-106649993D01*
X137471225Y-106650006D01*
X137489892Y-106875289D01*
X137545388Y-107094439D01*
X137636198Y-107301466D01*
X137759842Y-107490716D01*
X137759850Y-107490727D01*
X137912950Y-107657036D01*
X137912954Y-107657040D01*
X138091351Y-107795893D01*
X138290169Y-107903488D01*
X138290172Y-107903489D01*
X138503982Y-107976890D01*
X138503984Y-107976890D01*
X138503986Y-107976891D01*
X138726967Y-108014100D01*
X138726968Y-108014100D01*
X138953032Y-108014100D01*
X138953033Y-108014100D01*
X139176014Y-107976891D01*
X139389831Y-107903488D01*
X139588649Y-107795893D01*
X139767046Y-107657040D01*
X139920156Y-107490719D01*
X140043802Y-107301465D01*
X140134611Y-107094441D01*
X140190107Y-106875293D01*
X140208775Y-106650000D01*
X140208775Y-106649993D01*
X140190107Y-106424710D01*
X140190107Y-106424707D01*
X140134611Y-106205559D01*
X140043802Y-105998535D01*
X139920156Y-105809281D01*
X139920153Y-105809278D01*
X139920149Y-105809272D01*
X139783120Y-105660421D01*
X139752197Y-105597767D01*
X139760057Y-105528341D01*
X139804204Y-105474185D01*
X139831017Y-105460256D01*
X139945926Y-105417398D01*
X139945926Y-105417397D01*
X139945931Y-105417396D01*
X140061146Y-105331146D01*
X140147396Y-105215931D01*
X140197691Y-105081083D01*
X140204100Y-105021473D01*
X140204099Y-103198528D01*
X140197691Y-103138917D01*
X140157231Y-103030439D01*
X140147397Y-103004071D01*
X140147395Y-103004068D01*
X140079890Y-102913893D01*
X140055473Y-102848431D01*
X140070324Y-102780157D01*
X140079891Y-102765271D01*
X140146952Y-102675689D01*
X140146954Y-102675686D01*
X140197196Y-102540979D01*
X140197198Y-102540972D01*
X140203599Y-102481444D01*
X140203600Y-102481427D01*
X140203600Y-101820000D01*
X139282251Y-101820000D01*
X139313381Y-101766081D01*
X139348000Y-101636880D01*
X139348000Y-101503120D01*
X139313381Y-101373919D01*
X139282251Y-101320000D01*
X140203600Y-101320000D01*
X140203600Y-100658572D01*
X140203599Y-100658555D01*
X140197198Y-100599027D01*
X140197196Y-100599020D01*
X140146954Y-100464313D01*
X140146950Y-100464306D01*
X140060790Y-100349212D01*
X140060787Y-100349209D01*
X139945693Y-100263049D01*
X139945686Y-100263045D01*
X139830651Y-100220140D01*
X139774717Y-100178269D01*
X139750300Y-100112804D01*
X139765152Y-100044531D01*
X139782749Y-100019981D01*
X139920156Y-99870719D01*
X140043802Y-99681465D01*
X140134611Y-99474441D01*
X140190107Y-99255293D01*
X140197574Y-99165175D01*
X140208775Y-99030006D01*
X140208775Y-99029993D01*
X140190107Y-98804710D01*
X140190107Y-98804707D01*
X140134611Y-98585559D01*
X140043802Y-98378535D01*
X139920156Y-98189281D01*
X139920153Y-98189278D01*
X139920149Y-98189272D01*
X139767049Y-98022963D01*
X139767048Y-98022962D01*
X139767046Y-98022960D01*
X139588649Y-97884107D01*
X139588647Y-97884106D01*
X139588646Y-97884105D01*
X139588639Y-97884100D01*
X139560836Y-97869055D01*
X139511244Y-97819837D01*
X139496135Y-97751620D01*
X139520306Y-97686064D01*
X139560836Y-97650945D01*
X139588639Y-97635899D01*
X139588642Y-97635896D01*
X139588649Y-97635893D01*
X139767046Y-97497040D01*
X139920156Y-97330719D01*
X140043802Y-97141465D01*
X140134611Y-96934441D01*
X140190107Y-96715293D01*
X140197574Y-96625175D01*
X140208775Y-96490006D01*
X140208775Y-96489993D01*
X140190107Y-96264710D01*
X140190107Y-96264707D01*
X140134611Y-96045559D01*
X140043802Y-95838535D01*
X139920156Y-95649281D01*
X139920153Y-95649278D01*
X139920149Y-95649272D01*
X139767049Y-95482963D01*
X139767048Y-95482962D01*
X139767046Y-95482960D01*
X139588649Y-95344107D01*
X139588647Y-95344106D01*
X139588646Y-95344105D01*
X139588639Y-95344100D01*
X139560836Y-95329055D01*
X139511244Y-95279837D01*
X139496135Y-95211620D01*
X139520306Y-95146064D01*
X139560836Y-95110945D01*
X139588639Y-95095899D01*
X139588642Y-95095896D01*
X139588649Y-95095893D01*
X139767046Y-94957040D01*
X139920156Y-94790719D01*
X140043802Y-94601465D01*
X140134611Y-94394441D01*
X140190107Y-94175293D01*
X140197574Y-94085175D01*
X140208775Y-93950006D01*
X140208775Y-93949993D01*
X140190107Y-93724710D01*
X140190107Y-93724707D01*
X140134611Y-93505559D01*
X140043802Y-93298535D01*
X139920156Y-93109281D01*
X139920153Y-93109278D01*
X139920149Y-93109272D01*
X139767049Y-92942963D01*
X139767048Y-92942962D01*
X139767046Y-92942960D01*
X139588649Y-92804107D01*
X139588647Y-92804106D01*
X139588646Y-92804105D01*
X139588639Y-92804100D01*
X139560836Y-92789055D01*
X139511244Y-92739837D01*
X139496135Y-92671620D01*
X139520306Y-92606064D01*
X139560836Y-92570945D01*
X139588639Y-92555899D01*
X139588642Y-92555896D01*
X139588649Y-92555893D01*
X139767046Y-92417040D01*
X139920156Y-92250719D01*
X140043802Y-92061465D01*
X140134611Y-91854441D01*
X140190107Y-91635293D01*
X140197574Y-91545175D01*
X140208775Y-91410006D01*
X140208775Y-91409993D01*
X140192686Y-91215837D01*
X140190107Y-91184707D01*
X140134611Y-90965559D01*
X140043802Y-90758535D01*
X140004139Y-90697827D01*
X139920157Y-90569283D01*
X139920149Y-90569272D01*
X139767049Y-90402963D01*
X139767048Y-90402962D01*
X139767046Y-90402960D01*
X139588649Y-90264107D01*
X139588647Y-90264106D01*
X139588646Y-90264105D01*
X139588639Y-90264100D01*
X139560836Y-90249055D01*
X139511244Y-90199837D01*
X139496135Y-90131620D01*
X139520306Y-90066064D01*
X139560836Y-90030945D01*
X139588639Y-90015899D01*
X139588642Y-90015896D01*
X139588649Y-90015893D01*
X139767046Y-89877040D01*
X139920156Y-89710719D01*
X140043802Y-89521465D01*
X140134611Y-89314441D01*
X140190107Y-89095293D01*
X140197574Y-89005175D01*
X140208775Y-88870006D01*
X140208775Y-88869993D01*
X140195344Y-88707906D01*
X140190107Y-88644707D01*
X140134611Y-88425559D01*
X140043802Y-88218535D01*
X139920156Y-88029281D01*
X139920153Y-88029278D01*
X139920149Y-88029272D01*
X139767049Y-87862963D01*
X139767048Y-87862962D01*
X139767046Y-87862960D01*
X139588649Y-87724107D01*
X139562390Y-87709896D01*
X139389832Y-87616512D01*
X139389827Y-87616510D01*
X139176017Y-87543109D01*
X139008778Y-87515202D01*
X138953033Y-87505900D01*
X138726967Y-87505900D01*
X138682370Y-87513341D01*
X138503982Y-87543109D01*
X138290172Y-87616510D01*
X138290167Y-87616512D01*
X138091352Y-87724106D01*
X137912955Y-87862959D01*
X137912950Y-87862963D01*
X137759850Y-88029272D01*
X137759842Y-88029283D01*
X137636198Y-88218533D01*
X137545388Y-88425560D01*
X137489892Y-88644710D01*
X137471225Y-88869993D01*
X133676541Y-88869993D01*
X133673598Y-88842627D01*
X133673596Y-88842620D01*
X133623354Y-88707913D01*
X133623350Y-88707906D01*
X133537190Y-88592812D01*
X133537187Y-88592809D01*
X133422093Y-88506649D01*
X133422086Y-88506645D01*
X133287379Y-88456403D01*
X133287372Y-88456401D01*
X133227844Y-88450000D01*
X132580000Y-88450000D01*
X132580000Y-89366988D01*
X132522993Y-89334075D01*
X132395826Y-89300000D01*
X132264174Y-89300000D01*
X132137007Y-89334075D01*
X132080000Y-89366988D01*
X132080000Y-88450000D01*
X131432155Y-88450000D01*
X131372627Y-88456401D01*
X131372620Y-88456403D01*
X131237913Y-88506645D01*
X131237906Y-88506649D01*
X131122812Y-88592809D01*
X131122809Y-88592812D01*
X131036649Y-88707906D01*
X131036645Y-88707913D01*
X130986403Y-88842620D01*
X130986401Y-88842627D01*
X130980000Y-88902155D01*
X130980000Y-89550000D01*
X131896988Y-89550000D01*
X131864075Y-89607007D01*
X131830000Y-89734174D01*
X131830000Y-89865826D01*
X131864075Y-89992993D01*
X131896988Y-90050000D01*
X130980000Y-90050000D01*
X130980000Y-90697844D01*
X130986401Y-90757372D01*
X130986403Y-90757379D01*
X131036645Y-90892086D01*
X131036649Y-90892093D01*
X131122809Y-91007187D01*
X131122812Y-91007190D01*
X131237906Y-91093350D01*
X131237913Y-91093354D01*
X131369470Y-91142421D01*
X131425403Y-91184292D01*
X131449821Y-91249756D01*
X131434970Y-91318029D01*
X131413819Y-91346284D01*
X131291503Y-91468600D01*
X131155965Y-91662169D01*
X131155964Y-91662171D01*
X131056098Y-91876335D01*
X131056094Y-91876344D01*
X130994938Y-92104586D01*
X130994936Y-92104596D01*
X130974341Y-92339999D01*
X113900500Y-92339999D01*
X113900500Y-70639999D01*
X130944341Y-70639999D01*
X130944341Y-70640000D01*
X130964936Y-70875403D01*
X130964938Y-70875413D01*
X131026094Y-71103655D01*
X131026096Y-71103659D01*
X131026097Y-71103663D01*
X131125965Y-71317830D01*
X131125967Y-71317834D01*
X131261501Y-71511395D01*
X131261506Y-71511402D01*
X131428597Y-71678493D01*
X131428603Y-71678498D01*
X131614158Y-71808425D01*
X131657783Y-71863002D01*
X131664977Y-71932500D01*
X131633454Y-71994855D01*
X131614158Y-72011575D01*
X131428597Y-72141505D01*
X131261505Y-72308597D01*
X131125965Y-72502169D01*
X131125964Y-72502171D01*
X131026098Y-72716335D01*
X131026094Y-72716344D01*
X130964938Y-72944586D01*
X130964936Y-72944596D01*
X130944341Y-73179999D01*
X130944341Y-73180000D01*
X130964936Y-73415403D01*
X130964938Y-73415413D01*
X131026094Y-73643655D01*
X131026096Y-73643659D01*
X131026097Y-73643663D01*
X131059777Y-73715890D01*
X131125965Y-73857830D01*
X131125967Y-73857834D01*
X131195626Y-73957316D01*
X131260873Y-74050499D01*
X131261501Y-74051395D01*
X131261506Y-74051402D01*
X131428597Y-74218493D01*
X131428603Y-74218498D01*
X131614158Y-74348425D01*
X131657783Y-74403002D01*
X131664977Y-74472500D01*
X131633454Y-74534855D01*
X131614158Y-74551575D01*
X131428597Y-74681505D01*
X131261505Y-74848597D01*
X131125965Y-75042169D01*
X131125964Y-75042171D01*
X131026098Y-75256335D01*
X131026094Y-75256344D01*
X130964938Y-75484586D01*
X130964936Y-75484596D01*
X130944341Y-75719999D01*
X130944341Y-75720000D01*
X130964936Y-75955403D01*
X130964938Y-75955413D01*
X131026094Y-76183655D01*
X131026096Y-76183659D01*
X131026097Y-76183663D01*
X131125965Y-76397830D01*
X131125967Y-76397834D01*
X131234281Y-76552521D01*
X131261505Y-76591401D01*
X131428599Y-76758495D01*
X131525384Y-76826265D01*
X131622165Y-76894032D01*
X131622167Y-76894033D01*
X131622170Y-76894035D01*
X131836337Y-76993903D01*
X132064592Y-77055063D01*
X132252918Y-77071539D01*
X132299999Y-77075659D01*
X132300000Y-77075659D01*
X132300001Y-77075659D01*
X132339234Y-77072226D01*
X132535408Y-77055063D01*
X132763663Y-76993903D01*
X132977830Y-76894035D01*
X133171401Y-76758495D01*
X133338495Y-76591401D01*
X133474035Y-76397830D01*
X133573903Y-76183663D01*
X133635063Y-75955408D01*
X133655659Y-75720000D01*
X133635063Y-75484592D01*
X133573903Y-75256337D01*
X133474035Y-75042171D01*
X133338495Y-74848599D01*
X133338494Y-74848597D01*
X133171402Y-74681506D01*
X133171396Y-74681501D01*
X132985842Y-74551575D01*
X132942217Y-74496998D01*
X132935023Y-74427500D01*
X132966546Y-74365145D01*
X132985842Y-74348425D01*
X133008026Y-74332891D01*
X133171401Y-74218495D01*
X133338495Y-74051401D01*
X133474035Y-73857830D01*
X133573903Y-73643663D01*
X133635063Y-73415408D01*
X133655659Y-73180000D01*
X133635063Y-72944592D01*
X133573903Y-72716337D01*
X133474035Y-72502171D01*
X133338495Y-72308599D01*
X133338494Y-72308597D01*
X133171402Y-72141506D01*
X133171396Y-72141501D01*
X132985842Y-72011575D01*
X132942217Y-71956998D01*
X132935023Y-71887500D01*
X132966546Y-71825145D01*
X132985842Y-71808425D01*
X133008026Y-71792891D01*
X133171401Y-71678495D01*
X133338495Y-71511401D01*
X133474035Y-71317830D01*
X133573903Y-71103663D01*
X133635063Y-70875408D01*
X133655659Y-70640000D01*
X133635063Y-70404592D01*
X133573903Y-70176337D01*
X133474035Y-69962171D01*
X133338495Y-69768599D01*
X133216179Y-69646283D01*
X133182696Y-69584963D01*
X133187680Y-69515271D01*
X133229551Y-69459337D01*
X133260529Y-69442422D01*
X133392086Y-69393354D01*
X133392093Y-69393350D01*
X133507187Y-69307190D01*
X133507190Y-69307187D01*
X133593350Y-69192093D01*
X133593354Y-69192086D01*
X133643596Y-69057379D01*
X133643598Y-69057372D01*
X133649999Y-68997844D01*
X133650000Y-68997827D01*
X133650000Y-68350000D01*
X132733012Y-68350000D01*
X132765925Y-68292993D01*
X132800000Y-68165826D01*
X132800000Y-68034174D01*
X132765925Y-67907007D01*
X132733012Y-67850000D01*
X133650000Y-67850000D01*
X133650000Y-67202172D01*
X133649999Y-67202155D01*
X133643598Y-67142627D01*
X133643596Y-67142620D01*
X133593354Y-67007913D01*
X133593350Y-67007906D01*
X133507190Y-66892812D01*
X133507187Y-66892809D01*
X133392093Y-66806649D01*
X133392086Y-66806645D01*
X133257379Y-66756403D01*
X133257372Y-66756401D01*
X133197844Y-66750000D01*
X132550000Y-66750000D01*
X132550000Y-67666988D01*
X132492993Y-67634075D01*
X132365826Y-67600000D01*
X132234174Y-67600000D01*
X132107007Y-67634075D01*
X132050000Y-67666988D01*
X132050000Y-66750000D01*
X131402155Y-66750000D01*
X131342627Y-66756401D01*
X131342620Y-66756403D01*
X131207913Y-66806645D01*
X131207906Y-66806649D01*
X131092812Y-66892809D01*
X131092809Y-66892812D01*
X131006649Y-67007906D01*
X131006645Y-67007913D01*
X130956403Y-67142620D01*
X130956401Y-67142627D01*
X130950000Y-67202155D01*
X130950000Y-67850000D01*
X131866988Y-67850000D01*
X131834075Y-67907007D01*
X131800000Y-68034174D01*
X131800000Y-68165826D01*
X131834075Y-68292993D01*
X131866988Y-68350000D01*
X130950000Y-68350000D01*
X130950000Y-68997844D01*
X130956401Y-69057372D01*
X130956403Y-69057379D01*
X131006645Y-69192086D01*
X131006649Y-69192093D01*
X131092809Y-69307187D01*
X131092812Y-69307190D01*
X131207906Y-69393350D01*
X131207913Y-69393354D01*
X131339470Y-69442421D01*
X131395403Y-69484292D01*
X131419821Y-69549756D01*
X131404970Y-69618029D01*
X131383819Y-69646284D01*
X131261503Y-69768600D01*
X131125965Y-69962169D01*
X131125964Y-69962171D01*
X131026098Y-70176335D01*
X131026094Y-70176344D01*
X130964938Y-70404586D01*
X130964936Y-70404596D01*
X130944341Y-70639999D01*
X113900500Y-70639999D01*
X113900500Y-56384108D01*
X136199500Y-56384108D01*
X136199500Y-84365891D01*
X136233608Y-84493187D01*
X136266554Y-84550250D01*
X136299500Y-84607314D01*
X136392686Y-84700500D01*
X136506814Y-84766392D01*
X136634108Y-84800500D01*
X136765892Y-84800500D01*
X143475500Y-84800500D01*
X143542539Y-84820185D01*
X143588294Y-84872989D01*
X143599500Y-84924500D01*
X143599500Y-129065891D01*
X143633608Y-129193187D01*
X143638931Y-129202406D01*
X143699500Y-129307314D01*
X143792686Y-129400500D01*
X143906814Y-129466392D01*
X144034108Y-129500500D01*
X144034110Y-129500500D01*
X181965890Y-129500500D01*
X181965892Y-129500500D01*
X182093186Y-129466392D01*
X182207314Y-129400500D01*
X182300500Y-129307314D01*
X182366392Y-129193186D01*
X182400500Y-129065892D01*
X182400500Y-124284108D01*
X182400500Y-106649993D01*
X185731225Y-106649993D01*
X185731225Y-106650006D01*
X185749892Y-106875289D01*
X185805388Y-107094439D01*
X185896198Y-107301466D01*
X186019842Y-107490716D01*
X186019850Y-107490727D01*
X186172950Y-107657036D01*
X186172954Y-107657040D01*
X186351351Y-107795893D01*
X186379165Y-107810945D01*
X186428755Y-107860165D01*
X186443863Y-107928382D01*
X186419692Y-107993937D01*
X186379165Y-108029055D01*
X186351352Y-108044106D01*
X186172955Y-108182959D01*
X186172950Y-108182963D01*
X186019850Y-108349272D01*
X186019842Y-108349283D01*
X185896198Y-108538533D01*
X185805388Y-108745560D01*
X185749892Y-108964710D01*
X185731225Y-109189993D01*
X185731225Y-109190006D01*
X185749892Y-109415289D01*
X185805388Y-109634439D01*
X185896198Y-109841466D01*
X186019842Y-110030716D01*
X186019850Y-110030727D01*
X186172950Y-110197036D01*
X186172954Y-110197040D01*
X186351351Y-110335893D01*
X186379165Y-110350945D01*
X186428755Y-110400165D01*
X186443863Y-110468382D01*
X186419692Y-110533937D01*
X186379165Y-110569055D01*
X186351352Y-110584106D01*
X186172955Y-110722959D01*
X186172950Y-110722963D01*
X186019850Y-110889272D01*
X186019842Y-110889283D01*
X185896198Y-111078533D01*
X185805388Y-111285560D01*
X185749892Y-111504710D01*
X185731225Y-111729993D01*
X185731225Y-111730006D01*
X185749892Y-111955289D01*
X185805388Y-112174439D01*
X185896198Y-112381466D01*
X186019842Y-112570716D01*
X186019850Y-112570727D01*
X186172950Y-112737036D01*
X186172954Y-112737040D01*
X186351351Y-112875893D01*
X186368111Y-112884963D01*
X186379165Y-112890945D01*
X186428755Y-112940165D01*
X186443863Y-113008382D01*
X186419692Y-113073937D01*
X186379165Y-113109055D01*
X186351352Y-113124106D01*
X186172955Y-113262959D01*
X186172950Y-113262963D01*
X186019850Y-113429272D01*
X186019842Y-113429283D01*
X185896198Y-113618533D01*
X185805388Y-113825560D01*
X185749892Y-114044710D01*
X185731225Y-114269993D01*
X185731225Y-114270006D01*
X185749892Y-114495289D01*
X185805388Y-114714439D01*
X185896198Y-114921466D01*
X186019842Y-115110716D01*
X186019850Y-115110727D01*
X186154504Y-115256998D01*
X186172954Y-115277040D01*
X186351351Y-115415893D01*
X186379165Y-115430945D01*
X186428755Y-115480165D01*
X186443863Y-115548382D01*
X186419692Y-115613937D01*
X186379165Y-115649055D01*
X186351352Y-115664106D01*
X186172955Y-115802959D01*
X186172950Y-115802963D01*
X186019850Y-115969272D01*
X186019842Y-115969283D01*
X185896198Y-116158533D01*
X185805388Y-116365560D01*
X185749892Y-116584710D01*
X185731225Y-116809993D01*
X185731225Y-116810006D01*
X185749892Y-117035289D01*
X185805388Y-117254439D01*
X185896198Y-117461466D01*
X186019842Y-117650716D01*
X186019850Y-117650727D01*
X186154504Y-117796998D01*
X186172954Y-117817040D01*
X186351351Y-117955893D01*
X186379165Y-117970945D01*
X186428755Y-118020165D01*
X186443863Y-118088382D01*
X186419692Y-118153937D01*
X186379165Y-118189055D01*
X186351352Y-118204106D01*
X186172955Y-118342959D01*
X186172950Y-118342963D01*
X186019850Y-118509272D01*
X186019842Y-118509283D01*
X185896198Y-118698533D01*
X185805388Y-118905560D01*
X185749892Y-119124710D01*
X185731225Y-119349993D01*
X185731225Y-119350006D01*
X185749892Y-119575289D01*
X185805388Y-119794439D01*
X185896198Y-120001466D01*
X186019842Y-120190716D01*
X186019850Y-120190727D01*
X186171132Y-120355061D01*
X186172954Y-120357040D01*
X186351351Y-120495893D01*
X186379165Y-120510945D01*
X186428755Y-120560165D01*
X186443863Y-120628382D01*
X186419692Y-120693937D01*
X186379165Y-120729055D01*
X186351352Y-120744106D01*
X186172955Y-120882959D01*
X186172950Y-120882963D01*
X186019850Y-121049272D01*
X186019842Y-121049283D01*
X185896198Y-121238533D01*
X185805388Y-121445560D01*
X185749892Y-121664710D01*
X185731225Y-121889993D01*
X185731225Y-121890006D01*
X185749892Y-122115289D01*
X185805388Y-122334439D01*
X185896198Y-122541466D01*
X186019842Y-122730716D01*
X186019850Y-122730727D01*
X186172950Y-122897036D01*
X186172954Y-122897040D01*
X186351351Y-123035893D01*
X186379165Y-123050945D01*
X186428755Y-123100165D01*
X186443863Y-123168382D01*
X186419692Y-123233937D01*
X186379165Y-123269055D01*
X186351352Y-123284106D01*
X186172955Y-123422959D01*
X186172950Y-123422963D01*
X186019850Y-123589272D01*
X186019842Y-123589283D01*
X185896198Y-123778533D01*
X185805388Y-123985560D01*
X185749892Y-124204710D01*
X185731225Y-124429993D01*
X185731225Y-124430006D01*
X185749892Y-124655289D01*
X185805388Y-124874439D01*
X185896198Y-125081466D01*
X186019842Y-125270716D01*
X186019850Y-125270727D01*
X186172950Y-125437036D01*
X186172954Y-125437040D01*
X186351351Y-125575893D01*
X186550169Y-125683488D01*
X186550172Y-125683489D01*
X186763982Y-125756890D01*
X186763984Y-125756890D01*
X186763986Y-125756891D01*
X186986967Y-125794100D01*
X186986968Y-125794100D01*
X187213032Y-125794100D01*
X187213033Y-125794100D01*
X187436014Y-125756891D01*
X187649831Y-125683488D01*
X187848649Y-125575893D01*
X188027046Y-125437040D01*
X188180156Y-125270719D01*
X188303802Y-125081465D01*
X188394611Y-124874441D01*
X188450107Y-124655293D01*
X188468775Y-124430000D01*
X188468775Y-124429993D01*
X188450107Y-124204710D01*
X188450107Y-124204707D01*
X188394611Y-123985559D01*
X188303802Y-123778535D01*
X188180156Y-123589281D01*
X188180153Y-123589278D01*
X188180149Y-123589272D01*
X188027049Y-123422963D01*
X188027048Y-123422962D01*
X188027046Y-123422960D01*
X187848649Y-123284107D01*
X187848647Y-123284106D01*
X187848646Y-123284105D01*
X187848639Y-123284100D01*
X187820836Y-123269055D01*
X187771244Y-123219837D01*
X187756135Y-123151620D01*
X187780306Y-123086064D01*
X187820836Y-123050945D01*
X187848639Y-123035899D01*
X187848642Y-123035896D01*
X187848649Y-123035893D01*
X188027046Y-122897040D01*
X188180156Y-122730719D01*
X188303802Y-122541465D01*
X188394611Y-122334441D01*
X188450107Y-122115293D01*
X188468775Y-121890000D01*
X188468775Y-121889993D01*
X188450107Y-121664710D01*
X188450107Y-121664707D01*
X188394611Y-121445559D01*
X188303802Y-121238535D01*
X188180156Y-121049281D01*
X188180153Y-121049278D01*
X188180149Y-121049272D01*
X188027049Y-120882963D01*
X188027048Y-120882962D01*
X188027046Y-120882960D01*
X187848649Y-120744107D01*
X187848647Y-120744106D01*
X187848646Y-120744105D01*
X187848639Y-120744100D01*
X187820836Y-120729055D01*
X187771244Y-120679837D01*
X187756135Y-120611620D01*
X187780306Y-120546064D01*
X187820836Y-120510945D01*
X187848639Y-120495899D01*
X187848642Y-120495896D01*
X187848649Y-120495893D01*
X188027046Y-120357040D01*
X188126832Y-120248643D01*
X188180149Y-120190727D01*
X188180150Y-120190725D01*
X188180156Y-120190719D01*
X188303802Y-120001465D01*
X188394611Y-119794441D01*
X188450107Y-119575293D01*
X188468775Y-119350000D01*
X188468775Y-119349993D01*
X188450107Y-119124710D01*
X188450107Y-119124707D01*
X188394611Y-118905559D01*
X188303802Y-118698535D01*
X188180156Y-118509281D01*
X188180153Y-118509278D01*
X188180149Y-118509272D01*
X188027049Y-118342963D01*
X188027048Y-118342962D01*
X188027046Y-118342960D01*
X187848649Y-118204107D01*
X187848647Y-118204106D01*
X187848646Y-118204105D01*
X187848639Y-118204100D01*
X187820836Y-118189055D01*
X187771244Y-118139837D01*
X187756135Y-118071620D01*
X187780306Y-118006064D01*
X187820836Y-117970945D01*
X187848639Y-117955899D01*
X187848642Y-117955896D01*
X187848649Y-117955893D01*
X188027046Y-117817040D01*
X188166876Y-117665145D01*
X188180149Y-117650727D01*
X188180150Y-117650725D01*
X188180156Y-117650719D01*
X188303802Y-117461465D01*
X188394611Y-117254441D01*
X188450107Y-117035293D01*
X188468775Y-116810000D01*
X188468775Y-116809993D01*
X188450107Y-116584710D01*
X188450107Y-116584707D01*
X188394611Y-116365559D01*
X188303802Y-116158535D01*
X188180156Y-115969281D01*
X188180153Y-115969278D01*
X188180149Y-115969272D01*
X188027049Y-115802963D01*
X188027048Y-115802962D01*
X188027046Y-115802960D01*
X187848649Y-115664107D01*
X187848647Y-115664106D01*
X187848646Y-115664105D01*
X187848639Y-115664100D01*
X187820836Y-115649055D01*
X187771244Y-115599837D01*
X187756135Y-115531620D01*
X187780306Y-115466064D01*
X187820836Y-115430945D01*
X187848639Y-115415899D01*
X187848642Y-115415896D01*
X187848649Y-115415893D01*
X188027046Y-115277040D01*
X188166876Y-115125145D01*
X188180149Y-115110727D01*
X188180150Y-115110725D01*
X188180156Y-115110719D01*
X188303802Y-114921465D01*
X188394611Y-114714441D01*
X188450107Y-114495293D01*
X188468775Y-114270000D01*
X188468775Y-114269993D01*
X188450107Y-114044710D01*
X188450107Y-114044707D01*
X188394611Y-113825559D01*
X188303802Y-113618535D01*
X188180156Y-113429281D01*
X188180153Y-113429278D01*
X188180149Y-113429272D01*
X188027049Y-113262963D01*
X188027048Y-113262962D01*
X188027046Y-113262960D01*
X187848649Y-113124107D01*
X187848647Y-113124106D01*
X187848646Y-113124105D01*
X187848639Y-113124100D01*
X187820836Y-113109055D01*
X187771244Y-113059837D01*
X187756135Y-112991620D01*
X187780306Y-112926064D01*
X187820836Y-112890945D01*
X187848639Y-112875899D01*
X187848642Y-112875896D01*
X187848649Y-112875893D01*
X188027046Y-112737040D01*
X188180156Y-112570719D01*
X188303802Y-112381465D01*
X188394611Y-112174441D01*
X188450107Y-111955293D01*
X188468775Y-111730000D01*
X188468775Y-111729993D01*
X188450107Y-111504710D01*
X188450107Y-111504707D01*
X188394611Y-111285559D01*
X188303802Y-111078535D01*
X188180156Y-110889281D01*
X188180153Y-110889278D01*
X188180149Y-110889272D01*
X188027049Y-110722963D01*
X188027048Y-110722962D01*
X188027046Y-110722960D01*
X187848649Y-110584107D01*
X187848647Y-110584106D01*
X187848646Y-110584105D01*
X187848639Y-110584100D01*
X187820836Y-110569055D01*
X187771244Y-110519837D01*
X187756135Y-110451620D01*
X187780306Y-110386064D01*
X187820836Y-110350945D01*
X187848639Y-110335899D01*
X187848642Y-110335896D01*
X187848649Y-110335893D01*
X188027046Y-110197040D01*
X188180156Y-110030719D01*
X188303802Y-109841465D01*
X188394611Y-109634441D01*
X188450107Y-109415293D01*
X188468775Y-109190000D01*
X188468775Y-109189993D01*
X188450107Y-108964710D01*
X188450107Y-108964707D01*
X188394611Y-108745559D01*
X188303802Y-108538535D01*
X188180156Y-108349281D01*
X188180153Y-108349278D01*
X188180149Y-108349272D01*
X188027049Y-108182963D01*
X188027048Y-108182962D01*
X188027046Y-108182960D01*
X187848649Y-108044107D01*
X187848647Y-108044106D01*
X187848646Y-108044105D01*
X187848639Y-108044100D01*
X187820836Y-108029055D01*
X187771244Y-107979837D01*
X187756135Y-107911620D01*
X187780306Y-107846064D01*
X187820836Y-107810945D01*
X187848639Y-107795899D01*
X187848642Y-107795896D01*
X187848649Y-107795893D01*
X188027046Y-107657040D01*
X188180156Y-107490719D01*
X188303802Y-107301465D01*
X188394611Y-107094441D01*
X188450107Y-106875293D01*
X188468775Y-106650000D01*
X188468775Y-106649993D01*
X188450107Y-106424710D01*
X188450107Y-106424707D01*
X188394611Y-106205559D01*
X188303802Y-105998535D01*
X188180156Y-105809281D01*
X188180153Y-105809278D01*
X188180149Y-105809272D01*
X188027049Y-105642963D01*
X188027048Y-105642962D01*
X188027046Y-105642960D01*
X187848649Y-105504107D01*
X187767620Y-105460256D01*
X187649832Y-105396512D01*
X187649827Y-105396510D01*
X187436017Y-105323109D01*
X187268778Y-105295202D01*
X187213033Y-105285900D01*
X186986967Y-105285900D01*
X186942370Y-105293341D01*
X186763982Y-105323109D01*
X186550172Y-105396510D01*
X186550167Y-105396512D01*
X186351352Y-105504106D01*
X186172955Y-105642959D01*
X186172950Y-105642963D01*
X186019850Y-105809272D01*
X186019842Y-105809283D01*
X185896198Y-105998533D01*
X185805388Y-106205560D01*
X185749892Y-106424710D01*
X185731225Y-106649993D01*
X182400500Y-106649993D01*
X182400500Y-79725993D01*
X185731225Y-79725993D01*
X185731225Y-79726006D01*
X185749892Y-79951289D01*
X185805388Y-80170439D01*
X185896198Y-80377466D01*
X186019842Y-80566716D01*
X186019850Y-80566727D01*
X186172950Y-80733036D01*
X186172954Y-80733040D01*
X186351351Y-80871893D01*
X186379165Y-80886945D01*
X186428755Y-80936165D01*
X186443863Y-81004382D01*
X186419692Y-81069937D01*
X186379165Y-81105055D01*
X186351352Y-81120106D01*
X186172955Y-81258959D01*
X186172950Y-81258963D01*
X186019850Y-81425272D01*
X186019842Y-81425283D01*
X185896198Y-81614533D01*
X185805388Y-81821560D01*
X185749892Y-82040710D01*
X185731225Y-82265993D01*
X185731225Y-82266006D01*
X185749892Y-82491289D01*
X185805388Y-82710439D01*
X185896198Y-82917466D01*
X186019842Y-83106716D01*
X186019850Y-83106727D01*
X186172950Y-83273036D01*
X186172954Y-83273040D01*
X186351351Y-83411893D01*
X186379165Y-83426945D01*
X186428755Y-83476165D01*
X186443863Y-83544382D01*
X186419692Y-83609937D01*
X186379165Y-83645055D01*
X186351352Y-83660106D01*
X186172955Y-83798959D01*
X186172950Y-83798963D01*
X186019850Y-83965272D01*
X186019842Y-83965283D01*
X185896198Y-84154533D01*
X185805388Y-84361560D01*
X185749892Y-84580710D01*
X185731225Y-84805993D01*
X185731225Y-84806006D01*
X185749892Y-85031289D01*
X185805388Y-85250439D01*
X185896198Y-85457466D01*
X186019842Y-85646716D01*
X186019844Y-85646719D01*
X186157245Y-85795976D01*
X186188167Y-85858629D01*
X186180307Y-85928055D01*
X186136160Y-85982211D01*
X186109349Y-85996140D01*
X185994311Y-86039046D01*
X185994306Y-86039049D01*
X185879212Y-86125209D01*
X185879209Y-86125212D01*
X185793049Y-86240306D01*
X185793045Y-86240313D01*
X185742803Y-86375020D01*
X185742801Y-86375027D01*
X185736400Y-86434555D01*
X185736400Y-87096000D01*
X186657749Y-87096000D01*
X186626619Y-87149919D01*
X186592000Y-87279120D01*
X186592000Y-87412880D01*
X186626619Y-87542081D01*
X186657749Y-87596000D01*
X185736400Y-87596000D01*
X185736400Y-88257444D01*
X185742801Y-88316972D01*
X185742803Y-88316979D01*
X185793045Y-88451686D01*
X185793049Y-88451693D01*
X185879209Y-88566787D01*
X185879212Y-88566790D01*
X185994306Y-88652950D01*
X185994313Y-88652954D01*
X186109348Y-88695859D01*
X186165282Y-88737730D01*
X186189699Y-88803194D01*
X186174848Y-88871467D01*
X186157245Y-88896024D01*
X186019845Y-89045279D01*
X186019842Y-89045283D01*
X185896198Y-89234533D01*
X185805388Y-89441560D01*
X185749892Y-89660710D01*
X185731225Y-89885993D01*
X185731225Y-89886006D01*
X185749892Y-90111289D01*
X185805388Y-90330439D01*
X185896198Y-90537466D01*
X186019842Y-90726716D01*
X186019850Y-90726727D01*
X186172082Y-90892093D01*
X186172954Y-90893040D01*
X186351351Y-91031893D01*
X186379165Y-91046945D01*
X186428755Y-91096165D01*
X186443863Y-91164382D01*
X186419692Y-91229937D01*
X186379165Y-91265055D01*
X186351352Y-91280106D01*
X186172955Y-91418959D01*
X186172950Y-91418963D01*
X186019850Y-91585272D01*
X186019842Y-91585283D01*
X185896198Y-91774533D01*
X185805388Y-91981560D01*
X185749892Y-92200710D01*
X185731225Y-92425993D01*
X185731225Y-92426006D01*
X185749892Y-92651289D01*
X185805388Y-92870439D01*
X185896198Y-93077466D01*
X186019842Y-93266716D01*
X186019850Y-93266727D01*
X186122744Y-93378498D01*
X186172954Y-93433040D01*
X186351351Y-93571893D01*
X186379165Y-93586945D01*
X186428755Y-93636165D01*
X186443863Y-93704382D01*
X186419692Y-93769937D01*
X186379165Y-93805055D01*
X186351352Y-93820106D01*
X186172955Y-93958959D01*
X186172950Y-93958963D01*
X186019850Y-94125272D01*
X186019842Y-94125283D01*
X185896198Y-94314533D01*
X185805388Y-94521560D01*
X185749892Y-94740710D01*
X185731225Y-94965993D01*
X185731225Y-94966006D01*
X185749892Y-95191289D01*
X185805388Y-95410439D01*
X185896198Y-95617466D01*
X186019842Y-95806716D01*
X186019850Y-95806727D01*
X186122744Y-95918498D01*
X186172954Y-95973040D01*
X186351351Y-96111893D01*
X186379165Y-96126945D01*
X186428755Y-96176165D01*
X186443863Y-96244382D01*
X186419692Y-96309937D01*
X186379165Y-96345055D01*
X186351352Y-96360106D01*
X186172955Y-96498959D01*
X186172950Y-96498963D01*
X186019850Y-96665272D01*
X186019842Y-96665283D01*
X185896198Y-96854533D01*
X185805388Y-97061560D01*
X185749892Y-97280710D01*
X185731225Y-97505993D01*
X185731225Y-97506006D01*
X185749892Y-97731289D01*
X185805388Y-97950439D01*
X185896198Y-98157466D01*
X186019842Y-98346716D01*
X186019850Y-98346727D01*
X186122744Y-98458498D01*
X186172954Y-98513040D01*
X186351351Y-98651893D01*
X186379165Y-98666945D01*
X186428755Y-98716165D01*
X186443863Y-98784382D01*
X186419692Y-98849937D01*
X186379165Y-98885055D01*
X186351352Y-98900106D01*
X186172955Y-99038959D01*
X186172950Y-99038963D01*
X186019850Y-99205272D01*
X186019842Y-99205283D01*
X185896198Y-99394533D01*
X185805388Y-99601560D01*
X185749892Y-99820710D01*
X185731225Y-100045993D01*
X185731225Y-100046006D01*
X185749892Y-100271289D01*
X185805388Y-100490439D01*
X185896198Y-100697466D01*
X186019842Y-100886716D01*
X186019850Y-100886727D01*
X186172950Y-101053036D01*
X186172954Y-101053040D01*
X186351351Y-101191893D01*
X186379165Y-101206945D01*
X186428755Y-101256165D01*
X186443863Y-101324382D01*
X186419692Y-101389937D01*
X186379165Y-101425055D01*
X186351352Y-101440106D01*
X186172955Y-101578959D01*
X186172950Y-101578963D01*
X186019850Y-101745272D01*
X186019842Y-101745283D01*
X185896198Y-101934533D01*
X185805388Y-102141560D01*
X185749892Y-102360710D01*
X185731225Y-102585993D01*
X185731225Y-102586006D01*
X185749892Y-102811289D01*
X185805388Y-103030439D01*
X185896198Y-103237466D01*
X186019842Y-103426716D01*
X186019850Y-103426727D01*
X186172950Y-103593036D01*
X186172954Y-103593040D01*
X186351351Y-103731893D01*
X186550169Y-103839488D01*
X186550172Y-103839489D01*
X186763982Y-103912890D01*
X186763984Y-103912890D01*
X186763986Y-103912891D01*
X186986967Y-103950100D01*
X186986968Y-103950100D01*
X187213032Y-103950100D01*
X187213033Y-103950100D01*
X187436014Y-103912891D01*
X187649831Y-103839488D01*
X187848649Y-103731893D01*
X188027046Y-103593040D01*
X188180156Y-103426719D01*
X188303802Y-103237465D01*
X188394611Y-103030441D01*
X188450107Y-102811293D01*
X188461343Y-102675689D01*
X188468775Y-102586006D01*
X188468775Y-102585993D01*
X188450107Y-102360710D01*
X188450107Y-102360707D01*
X188394611Y-102141559D01*
X188303802Y-101934535D01*
X188180156Y-101745281D01*
X188180153Y-101745278D01*
X188180149Y-101745272D01*
X188027049Y-101578963D01*
X188027048Y-101578962D01*
X188027046Y-101578960D01*
X187848649Y-101440107D01*
X187848647Y-101440106D01*
X187848646Y-101440105D01*
X187848639Y-101440100D01*
X187820836Y-101425055D01*
X187771244Y-101375837D01*
X187756135Y-101307620D01*
X187780306Y-101242064D01*
X187820836Y-101206945D01*
X187848639Y-101191899D01*
X187848642Y-101191896D01*
X187848649Y-101191893D01*
X188027046Y-101053040D01*
X188180156Y-100886719D01*
X188303802Y-100697465D01*
X188394611Y-100490441D01*
X188450107Y-100271293D01*
X188468775Y-100046000D01*
X188468775Y-100045993D01*
X188450107Y-99820710D01*
X188450107Y-99820707D01*
X188394611Y-99601559D01*
X188303802Y-99394535D01*
X188180156Y-99205281D01*
X188180153Y-99205278D01*
X188180149Y-99205272D01*
X188027049Y-99038963D01*
X188027048Y-99038962D01*
X188027046Y-99038960D01*
X187848649Y-98900107D01*
X187848647Y-98900106D01*
X187848646Y-98900105D01*
X187848639Y-98900100D01*
X187820836Y-98885055D01*
X187771244Y-98835837D01*
X187756135Y-98767620D01*
X187780306Y-98702064D01*
X187820836Y-98666945D01*
X187848639Y-98651899D01*
X187848642Y-98651896D01*
X187848649Y-98651893D01*
X188027046Y-98513040D01*
X188180156Y-98346719D01*
X188303802Y-98157465D01*
X188394611Y-97950441D01*
X188450107Y-97731293D01*
X188468775Y-97506000D01*
X188468775Y-97505993D01*
X188450107Y-97280710D01*
X188450107Y-97280707D01*
X188394611Y-97061559D01*
X188303802Y-96854535D01*
X188180156Y-96665281D01*
X188180153Y-96665278D01*
X188180149Y-96665272D01*
X188027049Y-96498963D01*
X188027048Y-96498962D01*
X188027046Y-96498960D01*
X187848649Y-96360107D01*
X187848647Y-96360106D01*
X187848646Y-96360105D01*
X187848639Y-96360100D01*
X187820836Y-96345055D01*
X187771244Y-96295837D01*
X187756135Y-96227620D01*
X187780306Y-96162064D01*
X187820836Y-96126945D01*
X187848639Y-96111899D01*
X187848642Y-96111896D01*
X187848649Y-96111893D01*
X188027046Y-95973040D01*
X188180156Y-95806719D01*
X188303802Y-95617465D01*
X188394611Y-95410441D01*
X188450107Y-95191293D01*
X188468775Y-94966000D01*
X188468775Y-94965993D01*
X188450107Y-94740710D01*
X188450107Y-94740707D01*
X188394611Y-94521559D01*
X188303802Y-94314535D01*
X188180156Y-94125281D01*
X188180153Y-94125278D01*
X188180149Y-94125272D01*
X188027049Y-93958963D01*
X188027048Y-93958962D01*
X188027046Y-93958960D01*
X187848649Y-93820107D01*
X187848647Y-93820106D01*
X187848646Y-93820105D01*
X187848639Y-93820100D01*
X187820836Y-93805055D01*
X187771244Y-93755837D01*
X187756135Y-93687620D01*
X187780306Y-93622064D01*
X187820836Y-93586945D01*
X187848639Y-93571899D01*
X187848642Y-93571896D01*
X187848649Y-93571893D01*
X188027046Y-93433040D01*
X188180156Y-93266719D01*
X188303802Y-93077465D01*
X188394611Y-92870441D01*
X188450107Y-92651293D01*
X188468775Y-92426000D01*
X188468775Y-92425993D01*
X188450107Y-92200710D01*
X188450107Y-92200707D01*
X188394611Y-91981559D01*
X188303802Y-91774535D01*
X188180156Y-91585281D01*
X188180153Y-91585278D01*
X188180149Y-91585272D01*
X188027049Y-91418963D01*
X188027048Y-91418962D01*
X188027046Y-91418960D01*
X187848649Y-91280107D01*
X187848647Y-91280106D01*
X187848646Y-91280105D01*
X187848639Y-91280100D01*
X187820836Y-91265055D01*
X187771244Y-91215837D01*
X187756135Y-91147620D01*
X187780306Y-91082064D01*
X187820836Y-91046945D01*
X187848639Y-91031899D01*
X187848642Y-91031896D01*
X187848649Y-91031893D01*
X188027046Y-90893040D01*
X188150869Y-90758533D01*
X188180149Y-90726727D01*
X188180150Y-90726725D01*
X188180156Y-90726719D01*
X188303802Y-90537465D01*
X188394611Y-90330441D01*
X188450107Y-90111293D01*
X188458012Y-90015893D01*
X188468775Y-89886006D01*
X188468775Y-89885993D01*
X188450107Y-89660710D01*
X188450107Y-89660707D01*
X188394611Y-89441559D01*
X188303802Y-89234535D01*
X188180156Y-89045281D01*
X188180153Y-89045278D01*
X188180149Y-89045272D01*
X188042755Y-88896024D01*
X188011832Y-88833370D01*
X188019692Y-88763944D01*
X188063839Y-88709788D01*
X188090652Y-88695859D01*
X188205684Y-88652955D01*
X188205693Y-88652950D01*
X188320787Y-88566790D01*
X188320790Y-88566787D01*
X188406950Y-88451693D01*
X188406954Y-88451686D01*
X188457196Y-88316979D01*
X188457198Y-88316972D01*
X188463599Y-88257444D01*
X188463600Y-88257427D01*
X188463600Y-87596000D01*
X187542251Y-87596000D01*
X187573381Y-87542081D01*
X187608000Y-87412880D01*
X187608000Y-87279120D01*
X187573381Y-87149919D01*
X187542251Y-87096000D01*
X188463600Y-87096000D01*
X188463600Y-86434572D01*
X188463599Y-86434555D01*
X188457198Y-86375027D01*
X188457196Y-86375020D01*
X188406954Y-86240313D01*
X188406950Y-86240306D01*
X188320790Y-86125212D01*
X188320787Y-86125209D01*
X188205693Y-86039049D01*
X188205686Y-86039045D01*
X188090651Y-85996140D01*
X188034717Y-85954269D01*
X188010300Y-85888804D01*
X188025152Y-85820531D01*
X188042749Y-85795981D01*
X188180156Y-85646719D01*
X188303802Y-85457465D01*
X188394611Y-85250441D01*
X188450107Y-85031293D01*
X188468775Y-84806000D01*
X188468775Y-84805993D01*
X188452312Y-84607314D01*
X188450107Y-84580707D01*
X188394611Y-84361559D01*
X188303802Y-84154535D01*
X188180156Y-83965281D01*
X188180153Y-83965278D01*
X188180149Y-83965272D01*
X188027049Y-83798963D01*
X188027048Y-83798962D01*
X188027046Y-83798960D01*
X187848649Y-83660107D01*
X187848647Y-83660106D01*
X187848646Y-83660105D01*
X187848639Y-83660100D01*
X187820836Y-83645055D01*
X187771244Y-83595837D01*
X187756135Y-83527620D01*
X187780306Y-83462064D01*
X187820836Y-83426945D01*
X187848639Y-83411899D01*
X187848642Y-83411896D01*
X187848649Y-83411893D01*
X188027046Y-83273040D01*
X188180156Y-83106719D01*
X188303802Y-82917465D01*
X188394611Y-82710441D01*
X188450107Y-82491293D01*
X188468775Y-82266000D01*
X188468775Y-82265993D01*
X188450107Y-82040710D01*
X188450107Y-82040707D01*
X188394611Y-81821559D01*
X188303802Y-81614535D01*
X188180156Y-81425281D01*
X188180153Y-81425278D01*
X188180149Y-81425272D01*
X188027049Y-81258963D01*
X188027048Y-81258962D01*
X188027046Y-81258960D01*
X187848649Y-81120107D01*
X187848647Y-81120106D01*
X187848646Y-81120105D01*
X187848639Y-81120100D01*
X187820836Y-81105055D01*
X187771244Y-81055837D01*
X187756135Y-80987620D01*
X187780306Y-80922064D01*
X187820836Y-80886945D01*
X187848639Y-80871899D01*
X187848642Y-80871896D01*
X187848649Y-80871893D01*
X188027046Y-80733040D01*
X188180156Y-80566719D01*
X188303802Y-80377465D01*
X188394611Y-80170441D01*
X188450107Y-79951293D01*
X188468775Y-79726000D01*
X188468775Y-79725993D01*
X188450107Y-79500710D01*
X188450107Y-79500707D01*
X188394611Y-79281559D01*
X188303802Y-79074535D01*
X188180156Y-78885281D01*
X188180153Y-78885278D01*
X188180149Y-78885272D01*
X188027049Y-78718963D01*
X188027048Y-78718962D01*
X188027046Y-78718960D01*
X187848649Y-78580107D01*
X187822390Y-78565896D01*
X187649832Y-78472512D01*
X187649827Y-78472510D01*
X187436017Y-78399109D01*
X187268778Y-78371202D01*
X187213033Y-78361900D01*
X186986967Y-78361900D01*
X186942370Y-78369341D01*
X186763982Y-78399109D01*
X186550172Y-78472510D01*
X186550167Y-78472512D01*
X186351352Y-78580106D01*
X186172955Y-78718959D01*
X186172950Y-78718963D01*
X186019850Y-78885272D01*
X186019842Y-78885283D01*
X185896198Y-79074533D01*
X185805388Y-79281560D01*
X185749892Y-79500710D01*
X185731225Y-79725993D01*
X182400500Y-79725993D01*
X182400500Y-74274500D01*
X182420185Y-74207461D01*
X182472989Y-74161706D01*
X182524500Y-74150500D01*
X189265890Y-74150500D01*
X189265892Y-74150500D01*
X189393186Y-74116392D01*
X189507314Y-74050500D01*
X189600500Y-73957314D01*
X189666392Y-73843186D01*
X189700500Y-73715892D01*
X189700500Y-56384108D01*
X189666392Y-56256814D01*
X189600500Y-56142686D01*
X189507314Y-56049500D01*
X189450250Y-56016554D01*
X189393187Y-55983608D01*
X189329539Y-55966554D01*
X189265892Y-55949500D01*
X183565892Y-55949500D01*
X138865892Y-55949500D01*
X136765892Y-55949500D01*
X136634108Y-55949500D01*
X136506812Y-55983608D01*
X136392686Y-56049500D01*
X136392683Y-56049502D01*
X136299502Y-56142683D01*
X136299500Y-56142686D01*
X136233608Y-56256812D01*
X136199500Y-56384108D01*
X113900500Y-56384108D01*
X113900500Y-51299994D01*
X121839443Y-51299994D01*
X121839443Y-51300005D01*
X121859634Y-51543683D01*
X121859636Y-51543695D01*
X121919663Y-51780734D01*
X122017888Y-52004666D01*
X122151632Y-52209378D01*
X122317242Y-52389277D01*
X122317246Y-52389281D01*
X122510212Y-52539473D01*
X122725267Y-52655855D01*
X122725270Y-52655856D01*
X122956541Y-52735251D01*
X122956543Y-52735251D01*
X122956545Y-52735252D01*
X123197737Y-52775500D01*
X123197738Y-52775500D01*
X123442262Y-52775500D01*
X123442263Y-52775500D01*
X123683455Y-52735252D01*
X123914733Y-52655855D01*
X124129788Y-52539473D01*
X124322754Y-52389281D01*
X124488368Y-52209377D01*
X124622111Y-52004667D01*
X124720336Y-51780736D01*
X124780364Y-51543692D01*
X124780778Y-51538695D01*
X124800557Y-51300005D01*
X124800557Y-51299994D01*
X131999443Y-51299994D01*
X131999443Y-51300005D01*
X132019634Y-51543683D01*
X132019636Y-51543695D01*
X132079663Y-51780734D01*
X132177888Y-52004666D01*
X132311632Y-52209378D01*
X132477242Y-52389277D01*
X132477246Y-52389281D01*
X132670212Y-52539473D01*
X132885267Y-52655855D01*
X132885270Y-52655856D01*
X133116541Y-52735251D01*
X133116543Y-52735251D01*
X133116545Y-52735252D01*
X133357737Y-52775500D01*
X133357738Y-52775500D01*
X133602262Y-52775500D01*
X133602263Y-52775500D01*
X133843455Y-52735252D01*
X134074733Y-52655855D01*
X134289788Y-52539473D01*
X134482754Y-52389281D01*
X134648368Y-52209377D01*
X134782111Y-52004667D01*
X134880336Y-51780736D01*
X134940364Y-51543692D01*
X134940778Y-51538695D01*
X134960557Y-51300005D01*
X134960557Y-51299994D01*
X135239443Y-51299994D01*
X135239443Y-51300005D01*
X135259634Y-51543683D01*
X135259636Y-51543695D01*
X135319663Y-51780734D01*
X135417888Y-52004666D01*
X135551632Y-52209378D01*
X135717242Y-52389277D01*
X135717246Y-52389281D01*
X135910212Y-52539473D01*
X136125267Y-52655855D01*
X136125270Y-52655856D01*
X136356541Y-52735251D01*
X136356543Y-52735251D01*
X136356545Y-52735252D01*
X136597737Y-52775500D01*
X136597738Y-52775500D01*
X136842262Y-52775500D01*
X136842263Y-52775500D01*
X137083455Y-52735252D01*
X137314733Y-52655855D01*
X137529788Y-52539473D01*
X137722754Y-52389281D01*
X137888368Y-52209377D01*
X138022111Y-52004667D01*
X138120336Y-51780736D01*
X138180364Y-51543692D01*
X138180778Y-51538695D01*
X138200557Y-51300005D01*
X138200557Y-51299994D01*
X145399443Y-51299994D01*
X145399443Y-51300005D01*
X145419634Y-51543683D01*
X145419636Y-51543695D01*
X145479663Y-51780734D01*
X145577888Y-52004666D01*
X145711632Y-52209378D01*
X145877242Y-52389277D01*
X145877246Y-52389281D01*
X146070212Y-52539473D01*
X146285267Y-52655855D01*
X146285270Y-52655856D01*
X146516541Y-52735251D01*
X146516543Y-52735251D01*
X146516545Y-52735252D01*
X146757737Y-52775500D01*
X146757738Y-52775500D01*
X147002262Y-52775500D01*
X147002263Y-52775500D01*
X147243455Y-52735252D01*
X147474733Y-52655855D01*
X147689788Y-52539473D01*
X147882754Y-52389281D01*
X148048368Y-52209377D01*
X148182111Y-52004667D01*
X148280336Y-51780736D01*
X148340364Y-51543692D01*
X148340778Y-51538695D01*
X148360557Y-51300005D01*
X148360557Y-51299994D01*
X148839443Y-51299994D01*
X148839443Y-51300005D01*
X148859634Y-51543683D01*
X148859636Y-51543695D01*
X148919663Y-51780734D01*
X149017888Y-52004666D01*
X149151632Y-52209378D01*
X149317242Y-52389277D01*
X149317246Y-52389281D01*
X149510212Y-52539473D01*
X149725267Y-52655855D01*
X149725270Y-52655856D01*
X149956541Y-52735251D01*
X149956543Y-52735251D01*
X149956545Y-52735252D01*
X150197737Y-52775500D01*
X150197738Y-52775500D01*
X150442262Y-52775500D01*
X150442263Y-52775500D01*
X150683455Y-52735252D01*
X150914733Y-52655855D01*
X151129788Y-52539473D01*
X151322754Y-52389281D01*
X151488368Y-52209377D01*
X151622111Y-52004667D01*
X151720336Y-51780736D01*
X151780364Y-51543692D01*
X151780778Y-51538695D01*
X151800557Y-51300005D01*
X151800557Y-51299994D01*
X158999443Y-51299994D01*
X158999443Y-51300005D01*
X159019634Y-51543683D01*
X159019636Y-51543695D01*
X159079663Y-51780734D01*
X159177888Y-52004666D01*
X159311632Y-52209378D01*
X159477242Y-52389277D01*
X159477246Y-52389281D01*
X159670212Y-52539473D01*
X159885267Y-52655855D01*
X159885270Y-52655856D01*
X160116541Y-52735251D01*
X160116543Y-52735251D01*
X160116545Y-52735252D01*
X160357737Y-52775500D01*
X160357738Y-52775500D01*
X160602262Y-52775500D01*
X160602263Y-52775500D01*
X160843455Y-52735252D01*
X161074733Y-52655855D01*
X161289788Y-52539473D01*
X161482754Y-52389281D01*
X161648368Y-52209377D01*
X161782111Y-52004667D01*
X161880336Y-51780736D01*
X161940364Y-51543692D01*
X161940778Y-51538695D01*
X161960557Y-51300005D01*
X161960557Y-51299994D01*
X161960143Y-51294994D01*
X162654443Y-51294994D01*
X162654443Y-51295005D01*
X162674634Y-51538683D01*
X162674636Y-51538695D01*
X162734663Y-51775734D01*
X162832888Y-51999666D01*
X162966632Y-52204378D01*
X163132242Y-52384277D01*
X163132252Y-52384286D01*
X163138670Y-52389281D01*
X163325212Y-52534473D01*
X163540267Y-52650855D01*
X163540270Y-52650856D01*
X163771541Y-52730251D01*
X163771543Y-52730251D01*
X163771545Y-52730252D01*
X164012737Y-52770500D01*
X164012738Y-52770500D01*
X164257262Y-52770500D01*
X164257263Y-52770500D01*
X164498455Y-52730252D01*
X164729733Y-52650855D01*
X164944788Y-52534473D01*
X165137754Y-52384281D01*
X165303368Y-52204377D01*
X165437111Y-51999667D01*
X165535336Y-51775736D01*
X165595364Y-51538692D01*
X165595365Y-51538683D01*
X165615557Y-51295005D01*
X165615557Y-51294994D01*
X172814443Y-51294994D01*
X172814443Y-51295005D01*
X172834634Y-51538683D01*
X172834636Y-51538695D01*
X172894663Y-51775734D01*
X172992888Y-51999666D01*
X173126632Y-52204378D01*
X173292242Y-52384277D01*
X173292252Y-52384286D01*
X173298670Y-52389281D01*
X173485212Y-52534473D01*
X173700267Y-52650855D01*
X173700270Y-52650856D01*
X173931541Y-52730251D01*
X173931543Y-52730251D01*
X173931545Y-52730252D01*
X174172737Y-52770500D01*
X174172738Y-52770500D01*
X174417262Y-52770500D01*
X174417263Y-52770500D01*
X174658455Y-52730252D01*
X174889733Y-52650855D01*
X175104788Y-52534473D01*
X175297754Y-52384281D01*
X175463368Y-52204377D01*
X175597111Y-51999667D01*
X175695336Y-51775736D01*
X175755364Y-51538692D01*
X175755365Y-51538683D01*
X175775557Y-51295005D01*
X175775557Y-51294994D01*
X176154443Y-51294994D01*
X176154443Y-51295005D01*
X176174634Y-51538683D01*
X176174636Y-51538695D01*
X176234663Y-51775734D01*
X176332888Y-51999666D01*
X176466632Y-52204378D01*
X176632242Y-52384277D01*
X176632252Y-52384286D01*
X176638670Y-52389281D01*
X176825212Y-52534473D01*
X177040267Y-52650855D01*
X177040270Y-52650856D01*
X177271541Y-52730251D01*
X177271543Y-52730251D01*
X177271545Y-52730252D01*
X177512737Y-52770500D01*
X177512738Y-52770500D01*
X177757262Y-52770500D01*
X177757263Y-52770500D01*
X177998455Y-52730252D01*
X178229733Y-52650855D01*
X178444788Y-52534473D01*
X178637754Y-52384281D01*
X178803368Y-52204377D01*
X178937111Y-51999667D01*
X179035336Y-51775736D01*
X179095364Y-51538692D01*
X179095365Y-51538683D01*
X179115557Y-51295005D01*
X179115557Y-51294994D01*
X186314443Y-51294994D01*
X186314443Y-51295005D01*
X186334634Y-51538683D01*
X186334636Y-51538695D01*
X186394663Y-51775734D01*
X186492888Y-51999666D01*
X186626632Y-52204378D01*
X186792242Y-52384277D01*
X186792252Y-52384286D01*
X186798670Y-52389281D01*
X186985212Y-52534473D01*
X187200267Y-52650855D01*
X187200270Y-52650856D01*
X187431541Y-52730251D01*
X187431543Y-52730251D01*
X187431545Y-52730252D01*
X187672737Y-52770500D01*
X187672738Y-52770500D01*
X187917262Y-52770500D01*
X187917263Y-52770500D01*
X188158455Y-52730252D01*
X188389733Y-52650855D01*
X188604788Y-52534473D01*
X188797754Y-52384281D01*
X188963368Y-52204377D01*
X189097111Y-51999667D01*
X189195336Y-51775736D01*
X189255364Y-51538692D01*
X189255365Y-51538683D01*
X189275557Y-51295005D01*
X189275557Y-51294994D01*
X189654443Y-51294994D01*
X189654443Y-51295005D01*
X189674634Y-51538683D01*
X189674636Y-51538695D01*
X189734663Y-51775734D01*
X189832888Y-51999666D01*
X189966632Y-52204378D01*
X190132242Y-52384277D01*
X190132252Y-52384286D01*
X190138670Y-52389281D01*
X190325212Y-52534473D01*
X190540267Y-52650855D01*
X190540270Y-52650856D01*
X190771541Y-52730251D01*
X190771543Y-52730251D01*
X190771545Y-52730252D01*
X191012737Y-52770500D01*
X191012738Y-52770500D01*
X191257262Y-52770500D01*
X191257263Y-52770500D01*
X191498455Y-52730252D01*
X191729733Y-52650855D01*
X191944788Y-52534473D01*
X192137754Y-52384281D01*
X192303368Y-52204377D01*
X192437111Y-51999667D01*
X192535336Y-51775736D01*
X192595364Y-51538692D01*
X192595365Y-51538683D01*
X192615557Y-51295005D01*
X192615557Y-51294994D01*
X199814443Y-51294994D01*
X199814443Y-51295005D01*
X199834634Y-51538683D01*
X199834636Y-51538695D01*
X199894663Y-51775734D01*
X199992888Y-51999666D01*
X200126632Y-52204378D01*
X200292242Y-52384277D01*
X200292252Y-52384286D01*
X200298670Y-52389281D01*
X200485212Y-52534473D01*
X200700267Y-52650855D01*
X200700270Y-52650856D01*
X200931541Y-52730251D01*
X200931543Y-52730251D01*
X200931545Y-52730252D01*
X201172737Y-52770500D01*
X201172738Y-52770500D01*
X201417262Y-52770500D01*
X201417263Y-52770500D01*
X201658455Y-52730252D01*
X201889733Y-52650855D01*
X202104788Y-52534473D01*
X202297754Y-52384281D01*
X202463368Y-52204377D01*
X202597111Y-51999667D01*
X202695336Y-51775736D01*
X202755364Y-51538692D01*
X202755365Y-51538683D01*
X202775557Y-51295005D01*
X202775557Y-51294994D01*
X202755365Y-51051316D01*
X202755363Y-51051304D01*
X202695336Y-50814265D01*
X202597111Y-50590333D01*
X202463367Y-50385621D01*
X202297757Y-50205722D01*
X202297747Y-50205713D01*
X202104791Y-50055529D01*
X202104787Y-50055526D01*
X201889734Y-49939145D01*
X201889729Y-49939143D01*
X201658458Y-49859748D01*
X201447226Y-49824500D01*
X201417263Y-49819500D01*
X201172737Y-49819500D01*
X201142774Y-49824500D01*
X200931541Y-49859748D01*
X200700270Y-49939143D01*
X200700265Y-49939145D01*
X200485212Y-50055526D01*
X200485208Y-50055529D01*
X200292252Y-50205713D01*
X200292242Y-50205722D01*
X200126632Y-50385621D01*
X199992888Y-50590333D01*
X199894663Y-50814265D01*
X199834636Y-51051304D01*
X199834634Y-51051316D01*
X199814443Y-51294994D01*
X192615557Y-51294994D01*
X192595365Y-51051316D01*
X192595363Y-51051304D01*
X192535336Y-50814265D01*
X192437111Y-50590333D01*
X192303367Y-50385621D01*
X192137757Y-50205722D01*
X192137747Y-50205713D01*
X191944791Y-50055529D01*
X191944787Y-50055526D01*
X191729734Y-49939145D01*
X191729729Y-49939143D01*
X191498458Y-49859748D01*
X191287226Y-49824500D01*
X191257263Y-49819500D01*
X191012737Y-49819500D01*
X190982774Y-49824500D01*
X190771541Y-49859748D01*
X190540270Y-49939143D01*
X190540265Y-49939145D01*
X190325212Y-50055526D01*
X190325208Y-50055529D01*
X190132252Y-50205713D01*
X190132242Y-50205722D01*
X189966632Y-50385621D01*
X189832888Y-50590333D01*
X189734663Y-50814265D01*
X189674636Y-51051304D01*
X189674634Y-51051316D01*
X189654443Y-51294994D01*
X189275557Y-51294994D01*
X189255365Y-51051316D01*
X189255363Y-51051304D01*
X189195336Y-50814265D01*
X189097111Y-50590333D01*
X188963367Y-50385621D01*
X188797757Y-50205722D01*
X188797747Y-50205713D01*
X188604791Y-50055529D01*
X188604787Y-50055526D01*
X188389734Y-49939145D01*
X188389729Y-49939143D01*
X188158458Y-49859748D01*
X187947226Y-49824500D01*
X187917263Y-49819500D01*
X187672737Y-49819500D01*
X187642774Y-49824500D01*
X187431541Y-49859748D01*
X187200270Y-49939143D01*
X187200265Y-49939145D01*
X186985212Y-50055526D01*
X186985208Y-50055529D01*
X186792252Y-50205713D01*
X186792242Y-50205722D01*
X186626632Y-50385621D01*
X186492888Y-50590333D01*
X186394663Y-50814265D01*
X186334636Y-51051304D01*
X186334634Y-51051316D01*
X186314443Y-51294994D01*
X179115557Y-51294994D01*
X179095365Y-51051316D01*
X179095363Y-51051304D01*
X179035336Y-50814265D01*
X178937111Y-50590333D01*
X178803367Y-50385621D01*
X178637757Y-50205722D01*
X178637747Y-50205713D01*
X178444791Y-50055529D01*
X178444787Y-50055526D01*
X178229734Y-49939145D01*
X178229729Y-49939143D01*
X177998458Y-49859748D01*
X177787226Y-49824500D01*
X177757263Y-49819500D01*
X177512737Y-49819500D01*
X177482774Y-49824500D01*
X177271541Y-49859748D01*
X177040270Y-49939143D01*
X177040265Y-49939145D01*
X176825212Y-50055526D01*
X176825208Y-50055529D01*
X176632252Y-50205713D01*
X176632242Y-50205722D01*
X176466632Y-50385621D01*
X176332888Y-50590333D01*
X176234663Y-50814265D01*
X176174636Y-51051304D01*
X176174634Y-51051316D01*
X176154443Y-51294994D01*
X175775557Y-51294994D01*
X175755365Y-51051316D01*
X175755363Y-51051304D01*
X175695336Y-50814265D01*
X175597111Y-50590333D01*
X175463367Y-50385621D01*
X175297757Y-50205722D01*
X175297747Y-50205713D01*
X175104791Y-50055529D01*
X175104787Y-50055526D01*
X174889734Y-49939145D01*
X174889729Y-49939143D01*
X174658458Y-49859748D01*
X174447226Y-49824500D01*
X174417263Y-49819500D01*
X174172737Y-49819500D01*
X174142774Y-49824500D01*
X173931541Y-49859748D01*
X173700270Y-49939143D01*
X173700265Y-49939145D01*
X173485212Y-50055526D01*
X173485208Y-50055529D01*
X173292252Y-50205713D01*
X173292242Y-50205722D01*
X173126632Y-50385621D01*
X172992888Y-50590333D01*
X172894663Y-50814265D01*
X172834636Y-51051304D01*
X172834634Y-51051316D01*
X172814443Y-51294994D01*
X165615557Y-51294994D01*
X165595365Y-51051316D01*
X165595363Y-51051304D01*
X165535336Y-50814265D01*
X165437111Y-50590333D01*
X165303367Y-50385621D01*
X165137757Y-50205722D01*
X165137747Y-50205713D01*
X164944791Y-50055529D01*
X164944787Y-50055526D01*
X164729734Y-49939145D01*
X164729729Y-49939143D01*
X164498458Y-49859748D01*
X164287226Y-49824500D01*
X164257263Y-49819500D01*
X164012737Y-49819500D01*
X163982774Y-49824500D01*
X163771541Y-49859748D01*
X163540270Y-49939143D01*
X163540265Y-49939145D01*
X163325212Y-50055526D01*
X163325208Y-50055529D01*
X163132252Y-50205713D01*
X163132242Y-50205722D01*
X162966632Y-50385621D01*
X162832888Y-50590333D01*
X162734663Y-50814265D01*
X162674636Y-51051304D01*
X162674634Y-51051316D01*
X162654443Y-51294994D01*
X161960143Y-51294994D01*
X161940365Y-51056316D01*
X161940363Y-51056304D01*
X161880336Y-50819265D01*
X161878142Y-50814264D01*
X161782111Y-50595333D01*
X161648368Y-50390623D01*
X161648367Y-50390621D01*
X161482757Y-50210722D01*
X161482747Y-50210713D01*
X161289791Y-50060529D01*
X161289787Y-50060526D01*
X161074734Y-49944145D01*
X161074729Y-49944143D01*
X160843458Y-49864748D01*
X160662561Y-49834562D01*
X160602263Y-49824500D01*
X160357737Y-49824500D01*
X160309498Y-49832549D01*
X160116541Y-49864748D01*
X159885270Y-49944143D01*
X159885265Y-49944145D01*
X159670212Y-50060526D01*
X159670208Y-50060529D01*
X159477252Y-50210713D01*
X159477242Y-50210722D01*
X159311632Y-50390621D01*
X159177888Y-50595333D01*
X159079663Y-50819265D01*
X159019636Y-51056304D01*
X159019634Y-51056316D01*
X158999443Y-51299994D01*
X151800557Y-51299994D01*
X151780365Y-51056316D01*
X151780363Y-51056304D01*
X151720336Y-50819265D01*
X151718142Y-50814264D01*
X151622111Y-50595333D01*
X151488368Y-50390623D01*
X151488367Y-50390621D01*
X151322757Y-50210722D01*
X151322747Y-50210713D01*
X151129791Y-50060529D01*
X151129787Y-50060526D01*
X150914734Y-49944145D01*
X150914729Y-49944143D01*
X150683458Y-49864748D01*
X150502561Y-49834562D01*
X150442263Y-49824500D01*
X150197737Y-49824500D01*
X150149498Y-49832549D01*
X149956541Y-49864748D01*
X149725270Y-49944143D01*
X149725265Y-49944145D01*
X149510212Y-50060526D01*
X149510208Y-50060529D01*
X149317252Y-50210713D01*
X149317242Y-50210722D01*
X149151632Y-50390621D01*
X149017888Y-50595333D01*
X148919663Y-50819265D01*
X148859636Y-51056304D01*
X148859634Y-51056316D01*
X148839443Y-51299994D01*
X148360557Y-51299994D01*
X148340365Y-51056316D01*
X148340363Y-51056304D01*
X148280336Y-50819265D01*
X148278142Y-50814264D01*
X148182111Y-50595333D01*
X148048368Y-50390623D01*
X148048367Y-50390621D01*
X147882757Y-50210722D01*
X147882747Y-50210713D01*
X147689791Y-50060529D01*
X147689787Y-50060526D01*
X147474734Y-49944145D01*
X147474729Y-49944143D01*
X147243458Y-49864748D01*
X147062561Y-49834562D01*
X147002263Y-49824500D01*
X146757737Y-49824500D01*
X146709498Y-49832549D01*
X146516541Y-49864748D01*
X146285270Y-49944143D01*
X146285265Y-49944145D01*
X146070212Y-50060526D01*
X146070208Y-50060529D01*
X145877252Y-50210713D01*
X145877242Y-50210722D01*
X145711632Y-50390621D01*
X145577888Y-50595333D01*
X145479663Y-50819265D01*
X145419636Y-51056304D01*
X145419634Y-51056316D01*
X145399443Y-51299994D01*
X138200557Y-51299994D01*
X138180365Y-51056316D01*
X138180363Y-51056304D01*
X138120336Y-50819265D01*
X138118142Y-50814264D01*
X138022111Y-50595333D01*
X137888368Y-50390623D01*
X137888367Y-50390621D01*
X137722757Y-50210722D01*
X137722747Y-50210713D01*
X137529791Y-50060529D01*
X137529787Y-50060526D01*
X137314734Y-49944145D01*
X137314729Y-49944143D01*
X137083458Y-49864748D01*
X136902561Y-49834562D01*
X136842263Y-49824500D01*
X136597737Y-49824500D01*
X136549498Y-49832549D01*
X136356541Y-49864748D01*
X136125270Y-49944143D01*
X136125265Y-49944145D01*
X135910212Y-50060526D01*
X135910208Y-50060529D01*
X135717252Y-50210713D01*
X135717242Y-50210722D01*
X135551632Y-50390621D01*
X135417888Y-50595333D01*
X135319663Y-50819265D01*
X135259636Y-51056304D01*
X135259634Y-51056316D01*
X135239443Y-51299994D01*
X134960557Y-51299994D01*
X134940365Y-51056316D01*
X134940363Y-51056304D01*
X134880336Y-50819265D01*
X134878142Y-50814264D01*
X134782111Y-50595333D01*
X134648368Y-50390623D01*
X134648367Y-50390621D01*
X134482757Y-50210722D01*
X134482747Y-50210713D01*
X134289791Y-50060529D01*
X134289787Y-50060526D01*
X134074734Y-49944145D01*
X134074729Y-49944143D01*
X133843458Y-49864748D01*
X133662561Y-49834562D01*
X133602263Y-49824500D01*
X133357737Y-49824500D01*
X133309498Y-49832549D01*
X133116541Y-49864748D01*
X132885270Y-49944143D01*
X132885265Y-49944145D01*
X132670212Y-50060526D01*
X132670208Y-50060529D01*
X132477252Y-50210713D01*
X132477242Y-50210722D01*
X132311632Y-50390621D01*
X132177888Y-50595333D01*
X132079663Y-50819265D01*
X132019636Y-51056304D01*
X132019634Y-51056316D01*
X131999443Y-51299994D01*
X124800557Y-51299994D01*
X124780365Y-51056316D01*
X124780363Y-51056304D01*
X124720336Y-50819265D01*
X124718142Y-50814264D01*
X124622111Y-50595333D01*
X124488368Y-50390623D01*
X124488367Y-50390621D01*
X124322757Y-50210722D01*
X124322747Y-50210713D01*
X124129791Y-50060529D01*
X124129787Y-50060526D01*
X123914734Y-49944145D01*
X123914729Y-49944143D01*
X123683458Y-49864748D01*
X123502561Y-49834562D01*
X123442263Y-49824500D01*
X123197737Y-49824500D01*
X123149498Y-49832549D01*
X122956541Y-49864748D01*
X122725270Y-49944143D01*
X122725265Y-49944145D01*
X122510212Y-50060526D01*
X122510208Y-50060529D01*
X122317252Y-50210713D01*
X122317242Y-50210722D01*
X122151632Y-50390621D01*
X122017888Y-50595333D01*
X121919663Y-50819265D01*
X121859636Y-51056304D01*
X121859634Y-51056316D01*
X121839443Y-51299994D01*
X113900500Y-51299994D01*
X113900500Y-46408893D01*
X113920185Y-46341854D01*
X113972989Y-46296099D01*
X114042147Y-46286155D01*
X114105703Y-46315180D01*
X114143477Y-46373958D01*
X114148329Y-46402402D01*
X114156539Y-46559045D01*
X114213936Y-46921435D01*
X114216178Y-46929804D01*
X114308901Y-47275847D01*
X114440387Y-47618380D01*
X114606961Y-47945297D01*
X114806788Y-48253005D01*
X114954816Y-48435804D01*
X115037692Y-48538147D01*
X115297135Y-48797590D01*
X115297139Y-48797593D01*
X115582276Y-49028493D01*
X115879019Y-49221199D01*
X115889989Y-49228323D01*
X116216905Y-49394896D01*
X116559442Y-49526383D01*
X116913847Y-49621346D01*
X117276237Y-49678743D01*
X117622375Y-49696882D01*
X117642640Y-49697945D01*
X117642641Y-49697945D01*
X117642642Y-49697945D01*
X117661844Y-49696938D01*
X118009045Y-49678743D01*
X118371435Y-49621346D01*
X118725840Y-49526383D01*
X119068377Y-49394896D01*
X119395293Y-49228323D01*
X119703007Y-49028492D01*
X119988147Y-48797590D01*
X120247590Y-48538147D01*
X120478492Y-48253007D01*
X120678323Y-47945293D01*
X120844896Y-47618377D01*
X120890336Y-47500000D01*
X126286573Y-47500000D01*
X126306257Y-47787778D01*
X126306258Y-47787780D01*
X126364941Y-48070185D01*
X126364946Y-48070201D01*
X126447697Y-48303039D01*
X126461541Y-48341992D01*
X126594247Y-48598103D01*
X126760591Y-48833758D01*
X126760595Y-48833762D01*
X126760595Y-48833763D01*
X126957477Y-49044571D01*
X127089573Y-49152039D01*
X127181228Y-49226606D01*
X127427686Y-49376481D01*
X127427688Y-49376482D01*
X127427690Y-49376483D01*
X127604066Y-49453093D01*
X127692256Y-49491400D01*
X127970011Y-49569223D01*
X128215759Y-49603000D01*
X128255774Y-49608500D01*
X128255775Y-49608500D01*
X128544226Y-49608500D01*
X128584241Y-49603000D01*
X128829989Y-49569223D01*
X129107744Y-49491400D01*
X129372314Y-49376481D01*
X129618772Y-49226606D01*
X129842526Y-49044568D01*
X130039409Y-48833758D01*
X130205753Y-48598103D01*
X130338459Y-48341992D01*
X130435055Y-48070196D01*
X130435055Y-48070191D01*
X130435058Y-48070185D01*
X130481113Y-47848553D01*
X130493742Y-47787778D01*
X130513427Y-47500000D01*
X139686573Y-47500000D01*
X139706257Y-47787778D01*
X139706258Y-47787780D01*
X139764941Y-48070185D01*
X139764946Y-48070201D01*
X139847697Y-48303039D01*
X139861541Y-48341992D01*
X139994247Y-48598103D01*
X140160591Y-48833758D01*
X140160595Y-48833762D01*
X140160595Y-48833763D01*
X140357477Y-49044571D01*
X140489573Y-49152039D01*
X140581228Y-49226606D01*
X140827686Y-49376481D01*
X140827688Y-49376482D01*
X140827690Y-49376483D01*
X141004066Y-49453093D01*
X141092256Y-49491400D01*
X141370011Y-49569223D01*
X141615759Y-49603000D01*
X141655774Y-49608500D01*
X141655775Y-49608500D01*
X141944226Y-49608500D01*
X141984241Y-49603000D01*
X142229989Y-49569223D01*
X142507744Y-49491400D01*
X142772314Y-49376481D01*
X143018772Y-49226606D01*
X143242526Y-49044568D01*
X143439409Y-48833758D01*
X143605753Y-48598103D01*
X143738459Y-48341992D01*
X143835055Y-48070196D01*
X143835055Y-48070191D01*
X143835058Y-48070185D01*
X143881113Y-47848553D01*
X143893742Y-47787778D01*
X143913427Y-47500000D01*
X153286573Y-47500000D01*
X153306257Y-47787778D01*
X153306258Y-47787780D01*
X153364941Y-48070185D01*
X153364946Y-48070201D01*
X153447697Y-48303039D01*
X153461541Y-48341992D01*
X153594247Y-48598103D01*
X153760591Y-48833758D01*
X153760595Y-48833762D01*
X153760595Y-48833763D01*
X153957477Y-49044571D01*
X154089573Y-49152039D01*
X154181228Y-49226606D01*
X154427686Y-49376481D01*
X154427688Y-49376482D01*
X154427690Y-49376483D01*
X154604066Y-49453093D01*
X154692256Y-49491400D01*
X154970011Y-49569223D01*
X155215759Y-49603000D01*
X155255774Y-49608500D01*
X155255775Y-49608500D01*
X155544226Y-49608500D01*
X155584241Y-49603000D01*
X155829989Y-49569223D01*
X156107744Y-49491400D01*
X156372314Y-49376481D01*
X156618772Y-49226606D01*
X156842526Y-49044568D01*
X157039409Y-48833758D01*
X157205753Y-48598103D01*
X157338459Y-48341992D01*
X157435055Y-48070196D01*
X157435055Y-48070191D01*
X157435058Y-48070185D01*
X157481113Y-47848553D01*
X157493742Y-47787778D01*
X157513427Y-47500000D01*
X157513085Y-47495000D01*
X167102074Y-47495000D01*
X167121753Y-47782704D01*
X167180427Y-48065063D01*
X167180428Y-48065066D01*
X167276999Y-48336790D01*
X167409672Y-48592837D01*
X167556127Y-48800318D01*
X168278709Y-48077736D01*
X168375967Y-48211602D01*
X168498398Y-48334033D01*
X168632261Y-48431289D01*
X167911511Y-49152039D01*
X167996520Y-49221199D01*
X168242918Y-49371037D01*
X168507420Y-49485926D01*
X168785106Y-49563730D01*
X168785113Y-49563731D01*
X169070808Y-49603000D01*
X169359192Y-49603000D01*
X169644886Y-49563731D01*
X169644893Y-49563730D01*
X169922579Y-49485926D01*
X170187081Y-49371037D01*
X170433476Y-49221201D01*
X170433491Y-49221191D01*
X170518486Y-49152039D01*
X169797737Y-48431290D01*
X169931602Y-48334033D01*
X170054033Y-48211602D01*
X170151290Y-48077737D01*
X170873871Y-48800319D01*
X170873872Y-48800318D01*
X171020320Y-48592849D01*
X171020324Y-48592843D01*
X171153000Y-48336790D01*
X171249571Y-48065066D01*
X171249572Y-48065063D01*
X171308246Y-47782704D01*
X171327925Y-47495000D01*
X180602074Y-47495000D01*
X180621753Y-47782704D01*
X180680427Y-48065063D01*
X180680428Y-48065066D01*
X180776999Y-48336790D01*
X180909672Y-48592837D01*
X181056127Y-48800318D01*
X181778709Y-48077736D01*
X181875967Y-48211602D01*
X181998398Y-48334033D01*
X182132261Y-48431289D01*
X181411511Y-49152039D01*
X181496520Y-49221199D01*
X181742918Y-49371037D01*
X182007420Y-49485926D01*
X182285106Y-49563730D01*
X182285113Y-49563731D01*
X182570808Y-49603000D01*
X182859192Y-49603000D01*
X183144886Y-49563731D01*
X183144893Y-49563730D01*
X183422579Y-49485926D01*
X183687081Y-49371037D01*
X183933476Y-49221201D01*
X183933491Y-49221191D01*
X184018486Y-49152039D01*
X183297737Y-48431290D01*
X183431602Y-48334033D01*
X183554033Y-48211602D01*
X183651290Y-48077737D01*
X184373871Y-48800319D01*
X184373872Y-48800318D01*
X184520320Y-48592849D01*
X184520324Y-48592843D01*
X184653000Y-48336790D01*
X184749571Y-48065066D01*
X184749572Y-48065063D01*
X184808246Y-47782704D01*
X184827925Y-47495000D01*
X194102074Y-47495000D01*
X194121753Y-47782704D01*
X194180427Y-48065063D01*
X194180428Y-48065066D01*
X194276999Y-48336790D01*
X194409672Y-48592837D01*
X194556127Y-48800318D01*
X195278709Y-48077736D01*
X195375967Y-48211602D01*
X195498398Y-48334033D01*
X195632261Y-48431289D01*
X194911511Y-49152039D01*
X194996520Y-49221199D01*
X195242918Y-49371037D01*
X195507420Y-49485926D01*
X195785106Y-49563730D01*
X195785113Y-49563731D01*
X196070808Y-49603000D01*
X196359192Y-49603000D01*
X196644886Y-49563731D01*
X196644893Y-49563730D01*
X196922579Y-49485926D01*
X197187081Y-49371037D01*
X197433476Y-49221201D01*
X197433491Y-49221191D01*
X197518486Y-49152039D01*
X196797737Y-48431290D01*
X196931602Y-48334033D01*
X197054033Y-48211602D01*
X197151290Y-48077737D01*
X197873871Y-48800319D01*
X197873872Y-48800318D01*
X198020320Y-48592849D01*
X198020324Y-48592843D01*
X198153000Y-48336790D01*
X198249571Y-48065066D01*
X198249572Y-48065063D01*
X198308246Y-47782704D01*
X198327925Y-47495000D01*
X198308246Y-47207295D01*
X198249572Y-46924936D01*
X198249571Y-46924933D01*
X198153000Y-46653209D01*
X198020324Y-46397156D01*
X198020320Y-46397150D01*
X197873871Y-46189679D01*
X197151289Y-46912261D01*
X197054033Y-46778398D01*
X196931602Y-46655967D01*
X196797737Y-46558709D01*
X197518487Y-45837959D01*
X197433479Y-45768800D01*
X197187081Y-45618962D01*
X196922579Y-45504073D01*
X196644893Y-45426269D01*
X196644886Y-45426268D01*
X196359192Y-45387000D01*
X196070808Y-45387000D01*
X195785113Y-45426268D01*
X195785106Y-45426269D01*
X195507420Y-45504073D01*
X195242918Y-45618962D01*
X194996521Y-45768800D01*
X194996519Y-45768801D01*
X194911511Y-45837959D01*
X195632262Y-46558709D01*
X195498398Y-46655967D01*
X195375967Y-46778398D01*
X195278709Y-46912261D01*
X194556127Y-46189679D01*
X194556126Y-46189679D01*
X194409674Y-46397158D01*
X194276999Y-46653209D01*
X194180428Y-46924933D01*
X194180427Y-46924936D01*
X194121753Y-47207295D01*
X194102074Y-47495000D01*
X184827925Y-47495000D01*
X184808246Y-47207295D01*
X184749572Y-46924936D01*
X184749571Y-46924933D01*
X184653000Y-46653209D01*
X184520324Y-46397156D01*
X184520320Y-46397150D01*
X184373871Y-46189679D01*
X183651289Y-46912261D01*
X183554033Y-46778398D01*
X183431602Y-46655967D01*
X183297737Y-46558709D01*
X184018487Y-45837959D01*
X183933479Y-45768800D01*
X183687081Y-45618962D01*
X183422579Y-45504073D01*
X183144893Y-45426269D01*
X183144886Y-45426268D01*
X182859192Y-45387000D01*
X182570808Y-45387000D01*
X182285113Y-45426268D01*
X182285106Y-45426269D01*
X182007420Y-45504073D01*
X181742918Y-45618962D01*
X181496521Y-45768800D01*
X181496519Y-45768801D01*
X181411511Y-45837959D01*
X182132262Y-46558709D01*
X181998398Y-46655967D01*
X181875967Y-46778398D01*
X181778709Y-46912261D01*
X181056127Y-46189679D01*
X181056126Y-46189679D01*
X180909674Y-46397158D01*
X180776999Y-46653209D01*
X180680428Y-46924933D01*
X180680427Y-46924936D01*
X180621753Y-47207295D01*
X180602074Y-47495000D01*
X171327925Y-47495000D01*
X171308246Y-47207295D01*
X171249572Y-46924936D01*
X171249571Y-46924933D01*
X171153000Y-46653209D01*
X171020324Y-46397156D01*
X171020320Y-46397150D01*
X170873871Y-46189679D01*
X170151289Y-46912261D01*
X170054033Y-46778398D01*
X169931602Y-46655967D01*
X169797737Y-46558709D01*
X170518487Y-45837959D01*
X170433479Y-45768800D01*
X170187081Y-45618962D01*
X169922579Y-45504073D01*
X169644893Y-45426269D01*
X169644886Y-45426268D01*
X169359192Y-45387000D01*
X169070808Y-45387000D01*
X168785113Y-45426268D01*
X168785106Y-45426269D01*
X168507420Y-45504073D01*
X168242918Y-45618962D01*
X167996521Y-45768800D01*
X167996519Y-45768801D01*
X167911511Y-45837959D01*
X168632262Y-46558709D01*
X168498398Y-46655967D01*
X168375967Y-46778398D01*
X168278709Y-46912261D01*
X167556127Y-46189679D01*
X167556126Y-46189679D01*
X167409674Y-46397158D01*
X167276999Y-46653209D01*
X167180428Y-46924933D01*
X167180427Y-46924936D01*
X167121753Y-47207295D01*
X167102074Y-47495000D01*
X157513085Y-47495000D01*
X157493742Y-47212222D01*
X157464759Y-47072747D01*
X157435058Y-46929814D01*
X157435053Y-46929798D01*
X157338459Y-46658009D01*
X157338459Y-46658008D01*
X157205753Y-46401897D01*
X157039409Y-46166242D01*
X157039404Y-46166236D01*
X156868159Y-45982878D01*
X156842526Y-45955432D01*
X156842524Y-45955431D01*
X156842522Y-45955428D01*
X156618771Y-45773393D01*
X156372309Y-45623516D01*
X156107745Y-45508600D01*
X155829995Y-45430778D01*
X155829990Y-45430777D01*
X155829989Y-45430777D01*
X155687107Y-45411138D01*
X155544226Y-45391500D01*
X155544225Y-45391500D01*
X155255775Y-45391500D01*
X155255774Y-45391500D01*
X154970011Y-45430777D01*
X154970004Y-45430778D01*
X154692254Y-45508600D01*
X154427690Y-45623516D01*
X154181228Y-45773393D01*
X153957477Y-45955428D01*
X153760595Y-46166236D01*
X153760595Y-46166237D01*
X153760592Y-46166239D01*
X153760591Y-46166242D01*
X153694054Y-46260502D01*
X153594247Y-46401896D01*
X153461540Y-46658009D01*
X153364946Y-46929798D01*
X153364941Y-46929814D01*
X153306258Y-47212219D01*
X153306257Y-47212221D01*
X153286573Y-47500000D01*
X143913427Y-47500000D01*
X143893742Y-47212222D01*
X143864759Y-47072747D01*
X143835058Y-46929814D01*
X143835053Y-46929798D01*
X143738459Y-46658009D01*
X143738459Y-46658008D01*
X143605753Y-46401897D01*
X143439409Y-46166242D01*
X143439404Y-46166236D01*
X143268159Y-45982878D01*
X143242526Y-45955432D01*
X143242524Y-45955431D01*
X143242522Y-45955428D01*
X143018771Y-45773393D01*
X142772309Y-45623516D01*
X142507745Y-45508600D01*
X142229995Y-45430778D01*
X142229990Y-45430777D01*
X142229989Y-45430777D01*
X142087107Y-45411138D01*
X141944226Y-45391500D01*
X141944225Y-45391500D01*
X141655775Y-45391500D01*
X141655774Y-45391500D01*
X141370011Y-45430777D01*
X141370004Y-45430778D01*
X141092254Y-45508600D01*
X140827690Y-45623516D01*
X140581228Y-45773393D01*
X140357477Y-45955428D01*
X140160595Y-46166236D01*
X140160595Y-46166237D01*
X140160592Y-46166239D01*
X140160591Y-46166242D01*
X140094054Y-46260502D01*
X139994247Y-46401896D01*
X139861540Y-46658009D01*
X139764946Y-46929798D01*
X139764941Y-46929814D01*
X139706258Y-47212219D01*
X139706257Y-47212221D01*
X139686573Y-47500000D01*
X130513427Y-47500000D01*
X130493742Y-47212222D01*
X130464759Y-47072747D01*
X130435058Y-46929814D01*
X130435053Y-46929798D01*
X130338459Y-46658009D01*
X130338459Y-46658008D01*
X130205753Y-46401897D01*
X130039409Y-46166242D01*
X130039404Y-46166236D01*
X129868159Y-45982878D01*
X129842526Y-45955432D01*
X129842524Y-45955431D01*
X129842522Y-45955428D01*
X129618771Y-45773393D01*
X129372309Y-45623516D01*
X129107745Y-45508600D01*
X128829995Y-45430778D01*
X128829990Y-45430777D01*
X128829989Y-45430777D01*
X128687107Y-45411138D01*
X128544226Y-45391500D01*
X128544225Y-45391500D01*
X128255775Y-45391500D01*
X128255774Y-45391500D01*
X127970011Y-45430777D01*
X127970004Y-45430778D01*
X127692254Y-45508600D01*
X127427690Y-45623516D01*
X127181228Y-45773393D01*
X126957477Y-45955428D01*
X126760595Y-46166236D01*
X126760595Y-46166237D01*
X126760592Y-46166239D01*
X126760591Y-46166242D01*
X126694054Y-46260502D01*
X126594247Y-46401896D01*
X126461540Y-46658009D01*
X126364946Y-46929798D01*
X126364941Y-46929814D01*
X126306258Y-47212219D01*
X126306257Y-47212221D01*
X126286573Y-47500000D01*
X120890336Y-47500000D01*
X120976383Y-47275840D01*
X121071346Y-46921435D01*
X121128743Y-46559045D01*
X121147945Y-46192641D01*
X121128743Y-45826237D01*
X121071346Y-45463847D01*
X120976383Y-45109442D01*
X120844896Y-44766905D01*
X120678323Y-44439989D01*
X120478492Y-44132275D01*
X120247590Y-43847135D01*
X119988147Y-43587692D01*
X119703007Y-43356790D01*
X119703005Y-43356788D01*
X119395297Y-43156961D01*
X119068380Y-42990387D01*
X118725847Y-42858901D01*
X118725840Y-42858899D01*
X118371435Y-42763936D01*
X118371431Y-42763935D01*
X118371430Y-42763935D01*
X118009046Y-42706539D01*
X117642642Y-42687337D01*
X117642640Y-42687337D01*
X117276235Y-42706539D01*
X116913852Y-42763935D01*
X116913850Y-42763935D01*
X116559434Y-42858901D01*
X116216901Y-42990387D01*
X115889984Y-43156961D01*
X115582276Y-43356788D01*
X115297139Y-43587688D01*
X115297131Y-43587695D01*
X115037695Y-43847131D01*
X115037688Y-43847139D01*
X114806788Y-44132276D01*
X114606961Y-44439984D01*
X114440387Y-44766901D01*
X114308901Y-45109434D01*
X114213935Y-45463850D01*
X114213935Y-45463852D01*
X114156539Y-45826235D01*
X114148330Y-45982878D01*
X114125164Y-46048795D01*
X114070038Y-46091724D01*
X114000454Y-46098034D01*
X113938504Y-46065723D01*
X113903858Y-46005048D01*
X113900500Y-45976388D01*
X113900500Y-41139994D01*
X121839443Y-41139994D01*
X121839443Y-41140005D01*
X121859634Y-41383683D01*
X121859636Y-41383695D01*
X121919663Y-41620734D01*
X122017888Y-41844666D01*
X122151632Y-42049378D01*
X122317242Y-42229277D01*
X122317246Y-42229281D01*
X122510212Y-42379473D01*
X122725267Y-42495855D01*
X122725270Y-42495856D01*
X122956541Y-42575251D01*
X122956543Y-42575251D01*
X122956545Y-42575252D01*
X123197737Y-42615500D01*
X123197738Y-42615500D01*
X123442262Y-42615500D01*
X123442263Y-42615500D01*
X123683455Y-42575252D01*
X123914733Y-42495855D01*
X124129788Y-42379473D01*
X124322754Y-42229281D01*
X124488368Y-42049377D01*
X124622111Y-41844667D01*
X124720336Y-41620736D01*
X124780364Y-41383692D01*
X124780778Y-41378695D01*
X124800557Y-41140005D01*
X124800557Y-41139994D01*
X131999443Y-41139994D01*
X131999443Y-41140005D01*
X132019634Y-41383683D01*
X132019636Y-41383695D01*
X132079663Y-41620734D01*
X132177888Y-41844666D01*
X132311632Y-42049378D01*
X132477242Y-42229277D01*
X132477246Y-42229281D01*
X132670212Y-42379473D01*
X132885267Y-42495855D01*
X132885270Y-42495856D01*
X133116541Y-42575251D01*
X133116543Y-42575251D01*
X133116545Y-42575252D01*
X133357737Y-42615500D01*
X133357738Y-42615500D01*
X133602262Y-42615500D01*
X133602263Y-42615500D01*
X133843455Y-42575252D01*
X134074733Y-42495855D01*
X134289788Y-42379473D01*
X134482754Y-42229281D01*
X134648368Y-42049377D01*
X134782111Y-41844667D01*
X134880336Y-41620736D01*
X134940364Y-41383692D01*
X134940778Y-41378695D01*
X134960557Y-41140005D01*
X134960557Y-41139994D01*
X135239443Y-41139994D01*
X135239443Y-41140005D01*
X135259634Y-41383683D01*
X135259636Y-41383695D01*
X135319663Y-41620734D01*
X135417888Y-41844666D01*
X135551632Y-42049378D01*
X135717242Y-42229277D01*
X135717246Y-42229281D01*
X135910212Y-42379473D01*
X136125267Y-42495855D01*
X136125270Y-42495856D01*
X136356541Y-42575251D01*
X136356543Y-42575251D01*
X136356545Y-42575252D01*
X136597737Y-42615500D01*
X136597738Y-42615500D01*
X136842262Y-42615500D01*
X136842263Y-42615500D01*
X137083455Y-42575252D01*
X137314733Y-42495855D01*
X137529788Y-42379473D01*
X137722754Y-42229281D01*
X137888368Y-42049377D01*
X138022111Y-41844667D01*
X138120336Y-41620736D01*
X138180364Y-41383692D01*
X138180778Y-41378695D01*
X138200557Y-41140005D01*
X138200557Y-41139994D01*
X145399443Y-41139994D01*
X145399443Y-41140005D01*
X145419634Y-41383683D01*
X145419636Y-41383695D01*
X145479663Y-41620734D01*
X145577888Y-41844666D01*
X145711632Y-42049378D01*
X145877242Y-42229277D01*
X145877246Y-42229281D01*
X146070212Y-42379473D01*
X146285267Y-42495855D01*
X146285270Y-42495856D01*
X146516541Y-42575251D01*
X146516543Y-42575251D01*
X146516545Y-42575252D01*
X146757737Y-42615500D01*
X146757738Y-42615500D01*
X147002262Y-42615500D01*
X147002263Y-42615500D01*
X147243455Y-42575252D01*
X147474733Y-42495855D01*
X147689788Y-42379473D01*
X147882754Y-42229281D01*
X148048368Y-42049377D01*
X148182111Y-41844667D01*
X148280336Y-41620736D01*
X148340364Y-41383692D01*
X148340778Y-41378695D01*
X148360557Y-41140005D01*
X148360557Y-41139994D01*
X148839443Y-41139994D01*
X148839443Y-41140005D01*
X148859634Y-41383683D01*
X148859636Y-41383695D01*
X148919663Y-41620734D01*
X149017888Y-41844666D01*
X149151632Y-42049378D01*
X149317242Y-42229277D01*
X149317246Y-42229281D01*
X149510212Y-42379473D01*
X149725267Y-42495855D01*
X149725270Y-42495856D01*
X149956541Y-42575251D01*
X149956543Y-42575251D01*
X149956545Y-42575252D01*
X150197737Y-42615500D01*
X150197738Y-42615500D01*
X150442262Y-42615500D01*
X150442263Y-42615500D01*
X150683455Y-42575252D01*
X150914733Y-42495855D01*
X151129788Y-42379473D01*
X151322754Y-42229281D01*
X151488368Y-42049377D01*
X151622111Y-41844667D01*
X151720336Y-41620736D01*
X151780364Y-41383692D01*
X151780778Y-41378695D01*
X151800557Y-41140005D01*
X151800557Y-41139994D01*
X158999443Y-41139994D01*
X158999443Y-41140005D01*
X159019634Y-41383683D01*
X159019636Y-41383695D01*
X159079663Y-41620734D01*
X159177888Y-41844666D01*
X159311632Y-42049378D01*
X159477242Y-42229277D01*
X159477246Y-42229281D01*
X159670212Y-42379473D01*
X159885267Y-42495855D01*
X159885270Y-42495856D01*
X160116541Y-42575251D01*
X160116543Y-42575251D01*
X160116545Y-42575252D01*
X160357737Y-42615500D01*
X160357738Y-42615500D01*
X160602262Y-42615500D01*
X160602263Y-42615500D01*
X160843455Y-42575252D01*
X161074733Y-42495855D01*
X161289788Y-42379473D01*
X161482754Y-42229281D01*
X161648368Y-42049377D01*
X161782111Y-41844667D01*
X161880336Y-41620736D01*
X161940364Y-41383692D01*
X161940778Y-41378695D01*
X161960557Y-41140005D01*
X161960557Y-41139994D01*
X161960143Y-41134994D01*
X162654443Y-41134994D01*
X162654443Y-41135005D01*
X162674634Y-41378683D01*
X162674636Y-41378695D01*
X162734663Y-41615734D01*
X162832888Y-41839666D01*
X162966632Y-42044378D01*
X163132242Y-42224277D01*
X163132252Y-42224286D01*
X163138670Y-42229281D01*
X163325212Y-42374473D01*
X163540267Y-42490855D01*
X163540270Y-42490856D01*
X163771541Y-42570251D01*
X163771543Y-42570251D01*
X163771545Y-42570252D01*
X164012737Y-42610500D01*
X164012738Y-42610500D01*
X164257262Y-42610500D01*
X164257263Y-42610500D01*
X164498455Y-42570252D01*
X164729733Y-42490855D01*
X164944788Y-42374473D01*
X165137754Y-42224281D01*
X165303368Y-42044377D01*
X165437111Y-41839667D01*
X165535336Y-41615736D01*
X165595364Y-41378692D01*
X165595365Y-41378683D01*
X165615557Y-41135005D01*
X165615557Y-41134994D01*
X172814443Y-41134994D01*
X172814443Y-41135005D01*
X172834634Y-41378683D01*
X172834636Y-41378695D01*
X172894663Y-41615734D01*
X172992888Y-41839666D01*
X173126632Y-42044378D01*
X173292242Y-42224277D01*
X173292252Y-42224286D01*
X173298670Y-42229281D01*
X173485212Y-42374473D01*
X173700267Y-42490855D01*
X173700270Y-42490856D01*
X173931541Y-42570251D01*
X173931543Y-42570251D01*
X173931545Y-42570252D01*
X174172737Y-42610500D01*
X174172738Y-42610500D01*
X174417262Y-42610500D01*
X174417263Y-42610500D01*
X174658455Y-42570252D01*
X174889733Y-42490855D01*
X175104788Y-42374473D01*
X175297754Y-42224281D01*
X175463368Y-42044377D01*
X175597111Y-41839667D01*
X175695336Y-41615736D01*
X175755364Y-41378692D01*
X175755365Y-41378683D01*
X175775557Y-41135005D01*
X175775557Y-41134994D01*
X176154443Y-41134994D01*
X176154443Y-41135005D01*
X176174634Y-41378683D01*
X176174636Y-41378695D01*
X176234663Y-41615734D01*
X176332888Y-41839666D01*
X176466632Y-42044378D01*
X176632242Y-42224277D01*
X176632252Y-42224286D01*
X176638670Y-42229281D01*
X176825212Y-42374473D01*
X177040267Y-42490855D01*
X177040270Y-42490856D01*
X177271541Y-42570251D01*
X177271543Y-42570251D01*
X177271545Y-42570252D01*
X177512737Y-42610500D01*
X177512738Y-42610500D01*
X177757262Y-42610500D01*
X177757263Y-42610500D01*
X177998455Y-42570252D01*
X178229733Y-42490855D01*
X178444788Y-42374473D01*
X178637754Y-42224281D01*
X178803368Y-42044377D01*
X178937111Y-41839667D01*
X179035336Y-41615736D01*
X179095364Y-41378692D01*
X179095365Y-41378683D01*
X179115557Y-41135005D01*
X179115557Y-41134994D01*
X186314443Y-41134994D01*
X186314443Y-41135005D01*
X186334634Y-41378683D01*
X186334636Y-41378695D01*
X186394663Y-41615734D01*
X186492888Y-41839666D01*
X186626632Y-42044378D01*
X186792242Y-42224277D01*
X186792252Y-42224286D01*
X186798670Y-42229281D01*
X186985212Y-42374473D01*
X187200267Y-42490855D01*
X187200270Y-42490856D01*
X187431541Y-42570251D01*
X187431543Y-42570251D01*
X187431545Y-42570252D01*
X187672737Y-42610500D01*
X187672738Y-42610500D01*
X187917262Y-42610500D01*
X187917263Y-42610500D01*
X188158455Y-42570252D01*
X188389733Y-42490855D01*
X188604788Y-42374473D01*
X188797754Y-42224281D01*
X188963368Y-42044377D01*
X189097111Y-41839667D01*
X189195336Y-41615736D01*
X189255364Y-41378692D01*
X189255365Y-41378683D01*
X189275557Y-41135005D01*
X189275557Y-41134994D01*
X189654443Y-41134994D01*
X189654443Y-41135005D01*
X189674634Y-41378683D01*
X189674636Y-41378695D01*
X189734663Y-41615734D01*
X189832888Y-41839666D01*
X189966632Y-42044378D01*
X190132242Y-42224277D01*
X190132252Y-42224286D01*
X190138670Y-42229281D01*
X190325212Y-42374473D01*
X190540267Y-42490855D01*
X190540270Y-42490856D01*
X190771541Y-42570251D01*
X190771543Y-42570251D01*
X190771545Y-42570252D01*
X191012737Y-42610500D01*
X191012738Y-42610500D01*
X191257262Y-42610500D01*
X191257263Y-42610500D01*
X191498455Y-42570252D01*
X191729733Y-42490855D01*
X191944788Y-42374473D01*
X192137754Y-42224281D01*
X192303368Y-42044377D01*
X192437111Y-41839667D01*
X192535336Y-41615736D01*
X192595364Y-41378692D01*
X192595365Y-41378683D01*
X192615557Y-41135005D01*
X192615557Y-41134994D01*
X199814443Y-41134994D01*
X199814443Y-41135005D01*
X199834634Y-41378683D01*
X199834636Y-41378695D01*
X199894663Y-41615734D01*
X199992888Y-41839666D01*
X200126632Y-42044378D01*
X200292242Y-42224277D01*
X200292252Y-42224286D01*
X200298670Y-42229281D01*
X200485212Y-42374473D01*
X200700267Y-42490855D01*
X200700270Y-42490856D01*
X200931541Y-42570251D01*
X200931543Y-42570251D01*
X200931545Y-42570252D01*
X201172737Y-42610500D01*
X201172738Y-42610500D01*
X201417262Y-42610500D01*
X201417263Y-42610500D01*
X201658455Y-42570252D01*
X201889733Y-42490855D01*
X202104788Y-42374473D01*
X202297754Y-42224281D01*
X202463368Y-42044377D01*
X202597111Y-41839667D01*
X202695336Y-41615736D01*
X202755364Y-41378692D01*
X202755365Y-41378683D01*
X202775557Y-41135005D01*
X202775557Y-41134994D01*
X202755365Y-40891316D01*
X202755363Y-40891304D01*
X202695336Y-40654265D01*
X202597111Y-40430333D01*
X202463367Y-40225621D01*
X202297757Y-40045722D01*
X202297747Y-40045713D01*
X202104791Y-39895529D01*
X202104787Y-39895526D01*
X201889734Y-39779145D01*
X201889729Y-39779143D01*
X201658458Y-39699748D01*
X201447226Y-39664500D01*
X201417263Y-39659500D01*
X201172737Y-39659500D01*
X201142774Y-39664500D01*
X200931541Y-39699748D01*
X200700270Y-39779143D01*
X200700265Y-39779145D01*
X200485212Y-39895526D01*
X200485208Y-39895529D01*
X200292252Y-40045713D01*
X200292242Y-40045722D01*
X200126632Y-40225621D01*
X199992888Y-40430333D01*
X199894663Y-40654265D01*
X199834636Y-40891304D01*
X199834634Y-40891316D01*
X199814443Y-41134994D01*
X192615557Y-41134994D01*
X192595365Y-40891316D01*
X192595363Y-40891304D01*
X192535336Y-40654265D01*
X192437111Y-40430333D01*
X192303367Y-40225621D01*
X192137757Y-40045722D01*
X192137747Y-40045713D01*
X191944791Y-39895529D01*
X191944787Y-39895526D01*
X191729734Y-39779145D01*
X191729729Y-39779143D01*
X191498458Y-39699748D01*
X191287226Y-39664500D01*
X191257263Y-39659500D01*
X191012737Y-39659500D01*
X190982774Y-39664500D01*
X190771541Y-39699748D01*
X190540270Y-39779143D01*
X190540265Y-39779145D01*
X190325212Y-39895526D01*
X190325208Y-39895529D01*
X190132252Y-40045713D01*
X190132242Y-40045722D01*
X189966632Y-40225621D01*
X189832888Y-40430333D01*
X189734663Y-40654265D01*
X189674636Y-40891304D01*
X189674634Y-40891316D01*
X189654443Y-41134994D01*
X189275557Y-41134994D01*
X189255365Y-40891316D01*
X189255363Y-40891304D01*
X189195336Y-40654265D01*
X189097111Y-40430333D01*
X188963367Y-40225621D01*
X188797757Y-40045722D01*
X188797747Y-40045713D01*
X188604791Y-39895529D01*
X188604787Y-39895526D01*
X188389734Y-39779145D01*
X188389729Y-39779143D01*
X188158458Y-39699748D01*
X187947226Y-39664500D01*
X187917263Y-39659500D01*
X187672737Y-39659500D01*
X187642774Y-39664500D01*
X187431541Y-39699748D01*
X187200270Y-39779143D01*
X187200265Y-39779145D01*
X186985212Y-39895526D01*
X186985208Y-39895529D01*
X186792252Y-40045713D01*
X186792242Y-40045722D01*
X186626632Y-40225621D01*
X186492888Y-40430333D01*
X186394663Y-40654265D01*
X186334636Y-40891304D01*
X186334634Y-40891316D01*
X186314443Y-41134994D01*
X179115557Y-41134994D01*
X179095365Y-40891316D01*
X179095363Y-40891304D01*
X179035336Y-40654265D01*
X178937111Y-40430333D01*
X178803367Y-40225621D01*
X178637757Y-40045722D01*
X178637747Y-40045713D01*
X178444791Y-39895529D01*
X178444787Y-39895526D01*
X178229734Y-39779145D01*
X178229729Y-39779143D01*
X177998458Y-39699748D01*
X177787226Y-39664500D01*
X177757263Y-39659500D01*
X177512737Y-39659500D01*
X177482774Y-39664500D01*
X177271541Y-39699748D01*
X177040270Y-39779143D01*
X177040265Y-39779145D01*
X176825212Y-39895526D01*
X176825208Y-39895529D01*
X176632252Y-40045713D01*
X176632242Y-40045722D01*
X176466632Y-40225621D01*
X176332888Y-40430333D01*
X176234663Y-40654265D01*
X176174636Y-40891304D01*
X176174634Y-40891316D01*
X176154443Y-41134994D01*
X175775557Y-41134994D01*
X175755365Y-40891316D01*
X175755363Y-40891304D01*
X175695336Y-40654265D01*
X175597111Y-40430333D01*
X175463367Y-40225621D01*
X175297757Y-40045722D01*
X175297747Y-40045713D01*
X175104791Y-39895529D01*
X175104787Y-39895526D01*
X174889734Y-39779145D01*
X174889729Y-39779143D01*
X174658458Y-39699748D01*
X174447226Y-39664500D01*
X174417263Y-39659500D01*
X174172737Y-39659500D01*
X174142774Y-39664500D01*
X173931541Y-39699748D01*
X173700270Y-39779143D01*
X173700265Y-39779145D01*
X173485212Y-39895526D01*
X173485208Y-39895529D01*
X173292252Y-40045713D01*
X173292242Y-40045722D01*
X173126632Y-40225621D01*
X172992888Y-40430333D01*
X172894663Y-40654265D01*
X172834636Y-40891304D01*
X172834634Y-40891316D01*
X172814443Y-41134994D01*
X165615557Y-41134994D01*
X165595365Y-40891316D01*
X165595363Y-40891304D01*
X165535336Y-40654265D01*
X165437111Y-40430333D01*
X165303367Y-40225621D01*
X165137757Y-40045722D01*
X165137747Y-40045713D01*
X164944791Y-39895529D01*
X164944787Y-39895526D01*
X164729734Y-39779145D01*
X164729729Y-39779143D01*
X164498458Y-39699748D01*
X164287226Y-39664500D01*
X164257263Y-39659500D01*
X164012737Y-39659500D01*
X163982774Y-39664500D01*
X163771541Y-39699748D01*
X163540270Y-39779143D01*
X163540265Y-39779145D01*
X163325212Y-39895526D01*
X163325208Y-39895529D01*
X163132252Y-40045713D01*
X163132242Y-40045722D01*
X162966632Y-40225621D01*
X162832888Y-40430333D01*
X162734663Y-40654265D01*
X162674636Y-40891304D01*
X162674634Y-40891316D01*
X162654443Y-41134994D01*
X161960143Y-41134994D01*
X161940365Y-40896316D01*
X161940363Y-40896304D01*
X161880336Y-40659265D01*
X161878142Y-40654264D01*
X161782111Y-40435333D01*
X161648368Y-40230623D01*
X161648367Y-40230621D01*
X161482757Y-40050722D01*
X161482747Y-40050713D01*
X161289791Y-39900529D01*
X161289787Y-39900526D01*
X161074734Y-39784145D01*
X161074729Y-39784143D01*
X160843458Y-39704748D01*
X160662561Y-39674562D01*
X160602263Y-39664500D01*
X160357737Y-39664500D01*
X160309498Y-39672549D01*
X160116541Y-39704748D01*
X159885270Y-39784143D01*
X159885265Y-39784145D01*
X159670212Y-39900526D01*
X159670208Y-39900529D01*
X159477252Y-40050713D01*
X159477242Y-40050722D01*
X159311632Y-40230621D01*
X159177888Y-40435333D01*
X159079663Y-40659265D01*
X159019636Y-40896304D01*
X159019634Y-40896316D01*
X158999443Y-41139994D01*
X151800557Y-41139994D01*
X151780365Y-40896316D01*
X151780363Y-40896304D01*
X151720336Y-40659265D01*
X151718142Y-40654264D01*
X151622111Y-40435333D01*
X151488368Y-40230623D01*
X151488367Y-40230621D01*
X151322757Y-40050722D01*
X151322747Y-40050713D01*
X151129791Y-39900529D01*
X151129787Y-39900526D01*
X150914734Y-39784145D01*
X150914729Y-39784143D01*
X150683458Y-39704748D01*
X150502561Y-39674562D01*
X150442263Y-39664500D01*
X150197737Y-39664500D01*
X150149498Y-39672549D01*
X149956541Y-39704748D01*
X149725270Y-39784143D01*
X149725265Y-39784145D01*
X149510212Y-39900526D01*
X149510208Y-39900529D01*
X149317252Y-40050713D01*
X149317242Y-40050722D01*
X149151632Y-40230621D01*
X149017888Y-40435333D01*
X148919663Y-40659265D01*
X148859636Y-40896304D01*
X148859634Y-40896316D01*
X148839443Y-41139994D01*
X148360557Y-41139994D01*
X148340365Y-40896316D01*
X148340363Y-40896304D01*
X148280336Y-40659265D01*
X148278142Y-40654264D01*
X148182111Y-40435333D01*
X148048368Y-40230623D01*
X148048367Y-40230621D01*
X147882757Y-40050722D01*
X147882747Y-40050713D01*
X147689791Y-39900529D01*
X147689787Y-39900526D01*
X147474734Y-39784145D01*
X147474729Y-39784143D01*
X147243458Y-39704748D01*
X147062561Y-39674562D01*
X147002263Y-39664500D01*
X146757737Y-39664500D01*
X146709498Y-39672549D01*
X146516541Y-39704748D01*
X146285270Y-39784143D01*
X146285265Y-39784145D01*
X146070212Y-39900526D01*
X146070208Y-39900529D01*
X145877252Y-40050713D01*
X145877242Y-40050722D01*
X145711632Y-40230621D01*
X145577888Y-40435333D01*
X145479663Y-40659265D01*
X145419636Y-40896304D01*
X145419634Y-40896316D01*
X145399443Y-41139994D01*
X138200557Y-41139994D01*
X138180365Y-40896316D01*
X138180363Y-40896304D01*
X138120336Y-40659265D01*
X138118142Y-40654264D01*
X138022111Y-40435333D01*
X137888368Y-40230623D01*
X137888367Y-40230621D01*
X137722757Y-40050722D01*
X137722747Y-40050713D01*
X137529791Y-39900529D01*
X137529787Y-39900526D01*
X137314734Y-39784145D01*
X137314729Y-39784143D01*
X137083458Y-39704748D01*
X136902561Y-39674562D01*
X136842263Y-39664500D01*
X136597737Y-39664500D01*
X136549498Y-39672549D01*
X136356541Y-39704748D01*
X136125270Y-39784143D01*
X136125265Y-39784145D01*
X135910212Y-39900526D01*
X135910208Y-39900529D01*
X135717252Y-40050713D01*
X135717242Y-40050722D01*
X135551632Y-40230621D01*
X135417888Y-40435333D01*
X135319663Y-40659265D01*
X135259636Y-40896304D01*
X135259634Y-40896316D01*
X135239443Y-41139994D01*
X134960557Y-41139994D01*
X134940365Y-40896316D01*
X134940363Y-40896304D01*
X134880336Y-40659265D01*
X134878142Y-40654264D01*
X134782111Y-40435333D01*
X134648368Y-40230623D01*
X134648367Y-40230621D01*
X134482757Y-40050722D01*
X134482747Y-40050713D01*
X134289791Y-39900529D01*
X134289787Y-39900526D01*
X134074734Y-39784145D01*
X134074729Y-39784143D01*
X133843458Y-39704748D01*
X133662561Y-39674562D01*
X133602263Y-39664500D01*
X133357737Y-39664500D01*
X133309498Y-39672549D01*
X133116541Y-39704748D01*
X132885270Y-39784143D01*
X132885265Y-39784145D01*
X132670212Y-39900526D01*
X132670208Y-39900529D01*
X132477252Y-40050713D01*
X132477242Y-40050722D01*
X132311632Y-40230621D01*
X132177888Y-40435333D01*
X132079663Y-40659265D01*
X132019636Y-40896304D01*
X132019634Y-40896316D01*
X131999443Y-41139994D01*
X124800557Y-41139994D01*
X124780365Y-40896316D01*
X124780363Y-40896304D01*
X124720336Y-40659265D01*
X124718142Y-40654264D01*
X124622111Y-40435333D01*
X124488368Y-40230623D01*
X124488367Y-40230621D01*
X124322757Y-40050722D01*
X124322747Y-40050713D01*
X124129791Y-39900529D01*
X124129787Y-39900526D01*
X123914734Y-39784145D01*
X123914729Y-39784143D01*
X123683458Y-39704748D01*
X123502561Y-39674562D01*
X123442263Y-39664500D01*
X123197737Y-39664500D01*
X123149498Y-39672549D01*
X122956541Y-39704748D01*
X122725270Y-39784143D01*
X122725265Y-39784145D01*
X122510212Y-39900526D01*
X122510208Y-39900529D01*
X122317252Y-40050713D01*
X122317242Y-40050722D01*
X122151632Y-40230621D01*
X122017888Y-40435333D01*
X121919663Y-40659265D01*
X121859636Y-40896304D01*
X121859634Y-40896316D01*
X121839443Y-41139994D01*
X113900500Y-41139994D01*
X113900500Y-32574500D01*
X113920185Y-32507461D01*
X113972989Y-32461706D01*
X114024500Y-32450500D01*
X210475500Y-32450500D01*
X210542539Y-32470185D01*
G37*
%TD.AperFunction*%
%TD*%
M02*
