%TF.GenerationSoftware,KiCad,Pcbnew,8.0.5*%
%TF.CreationDate,2025-03-21T11:48:15-04:00*%
%TF.ProjectId,ArduinoRev4Hat,41726475-696e-46f5-9265-76344861742e,rev?*%
%TF.SameCoordinates,Original*%
%TF.FileFunction,Legend,Bot*%
%TF.FilePolarity,Positive*%
%FSLAX46Y46*%
G04 Gerber Fmt 4.6, Leading zero omitted, Abs format (unit mm)*
G04 Created by KiCad (PCBNEW 8.0.5) date 2025-03-21 11:48:15*
%MOMM*%
%LPD*%
G01*
G04 APERTURE LIST*
%ADD10C,0.150000*%
G04 APERTURE END LIST*
D10*
X184740180Y-125168094D02*
X185740180Y-125168094D01*
X185740180Y-125168094D02*
X185740180Y-124929999D01*
X185740180Y-124929999D02*
X185692561Y-124787142D01*
X185692561Y-124787142D02*
X185597323Y-124691904D01*
X185597323Y-124691904D02*
X185502085Y-124644285D01*
X185502085Y-124644285D02*
X185311609Y-124596666D01*
X185311609Y-124596666D02*
X185168752Y-124596666D01*
X185168752Y-124596666D02*
X184978276Y-124644285D01*
X184978276Y-124644285D02*
X184883038Y-124691904D01*
X184883038Y-124691904D02*
X184787800Y-124787142D01*
X184787800Y-124787142D02*
X184740180Y-124929999D01*
X184740180Y-124929999D02*
X184740180Y-125168094D01*
X185740180Y-123977618D02*
X185740180Y-123882380D01*
X185740180Y-123882380D02*
X185692561Y-123787142D01*
X185692561Y-123787142D02*
X185644942Y-123739523D01*
X185644942Y-123739523D02*
X185549704Y-123691904D01*
X185549704Y-123691904D02*
X185359228Y-123644285D01*
X185359228Y-123644285D02*
X185121133Y-123644285D01*
X185121133Y-123644285D02*
X184930657Y-123691904D01*
X184930657Y-123691904D02*
X184835419Y-123739523D01*
X184835419Y-123739523D02*
X184787800Y-123787142D01*
X184787800Y-123787142D02*
X184740180Y-123882380D01*
X184740180Y-123882380D02*
X184740180Y-123977618D01*
X184740180Y-123977618D02*
X184787800Y-124072856D01*
X184787800Y-124072856D02*
X184835419Y-124120475D01*
X184835419Y-124120475D02*
X184930657Y-124168094D01*
X184930657Y-124168094D02*
X185121133Y-124215713D01*
X185121133Y-124215713D02*
X185359228Y-124215713D01*
X185359228Y-124215713D02*
X185549704Y-124168094D01*
X185549704Y-124168094D02*
X185644942Y-124120475D01*
X185644942Y-124120475D02*
X185692561Y-124072856D01*
X185692561Y-124072856D02*
X185740180Y-123977618D01*
M02*
