%TF.GenerationSoftware,KiCad,Pcbnew,8.0.5*%
%TF.CreationDate,2025-03-21T11:48:15-04:00*%
%TF.ProjectId,ArduinoRev4Hat,41726475-696e-46f5-9265-76344861742e,rev?*%
%TF.SameCoordinates,Original*%
%TF.FileFunction,Copper,L1,Top*%
%TF.FilePolarity,Positive*%
%FSLAX46Y46*%
G04 Gerber Fmt 4.6, Leading zero omitted, Abs format (unit mm)*
G04 Created by KiCad (PCBNEW 8.0.5) date 2025-03-21 11:48:15*
%MOMM*%
%LPD*%
G01*
G04 APERTURE LIST*
%TA.AperFunction,ComponentPad*%
%ADD10C,3.216000*%
%TD*%
%TA.AperFunction,ComponentPad*%
%ADD11C,1.950000*%
%TD*%
%TA.AperFunction,ComponentPad*%
%ADD12R,1.700000X1.700000*%
%TD*%
%TA.AperFunction,ComponentPad*%
%ADD13O,1.700000X1.700000*%
%TD*%
%TA.AperFunction,ComponentPad*%
%ADD14O,1.727200X1.727200*%
%TD*%
%TA.AperFunction,ComponentPad*%
%ADD15R,1.727200X1.727200*%
%TD*%
%TA.AperFunction,Conductor*%
%ADD16C,0.200000*%
%TD*%
%TA.AperFunction,Conductor*%
%ADD17C,0.700000*%
%TD*%
G04 APERTURE END LIST*
D10*
%TO.P,J7,1,1*%
%TO.N,/VM_Z*%
X128400000Y-47500000D03*
D11*
%TO.P,J7,S1*%
%TO.N,N/C*%
X133480000Y-51300000D03*
%TO.P,J7,S2*%
X123320000Y-51300000D03*
%TO.P,J7,S3*%
X123320000Y-41140000D03*
%TO.P,J7,S4*%
X133480000Y-41140000D03*
%TD*%
D12*
%TO.P,J5,1,Pin_1*%
%TO.N,GND*%
X132300000Y-68100000D03*
D13*
%TO.P,J5,2,Pin_2*%
%TO.N,/VM_X*%
X132300000Y-70640000D03*
%TO.P,J5,3,Pin_3*%
%TO.N,/IN1_X*%
X132300000Y-73180000D03*
%TO.P,J5,4,Pin_4*%
%TO.N,/IN2_X*%
X132300000Y-75720000D03*
%TD*%
D10*
%TO.P,J9,1,1*%
%TO.N,GND*%
X196215000Y-47495000D03*
D11*
%TO.P,J9,S1*%
%TO.N,N/C*%
X201295000Y-51295000D03*
%TO.P,J9,S2*%
X191135000Y-51295000D03*
%TO.P,J9,S3*%
X191135000Y-41135000D03*
%TO.P,J9,S4*%
X201295000Y-41135000D03*
%TD*%
D10*
%TO.P,J10,1,1*%
%TO.N,GND*%
X169215000Y-47495000D03*
D11*
%TO.P,J10,S1*%
%TO.N,N/C*%
X174295000Y-51295000D03*
%TO.P,J10,S2*%
X164135000Y-51295000D03*
%TO.P,J10,S3*%
X164135000Y-41135000D03*
%TO.P,J10,S4*%
X174295000Y-41135000D03*
%TD*%
D12*
%TO.P,J4,1,Pin_1*%
%TO.N,GND*%
X132330000Y-89800000D03*
D13*
%TO.P,J4,2,Pin_2*%
%TO.N,/VM_Y*%
X132330000Y-92340000D03*
%TO.P,J4,3,Pin_3*%
%TO.N,/IN1_Y*%
X132330000Y-94880000D03*
%TO.P,J4,4,Pin_4*%
%TO.N,/IN2_Y*%
X132330000Y-97420000D03*
%TD*%
D10*
%TO.P,J8,1,1*%
%TO.N,/VM_Y*%
X141800000Y-47500000D03*
D11*
%TO.P,J8,S1*%
%TO.N,N/C*%
X146880000Y-51300000D03*
%TO.P,J8,S2*%
X136720000Y-51300000D03*
%TO.P,J8,S3*%
X136720000Y-41140000D03*
%TO.P,J8,S4*%
X146880000Y-41140000D03*
%TD*%
D10*
%TO.P,J11,1,1*%
%TO.N,GND*%
X182715000Y-47495000D03*
D11*
%TO.P,J11,S1*%
%TO.N,N/C*%
X187795000Y-51295000D03*
%TO.P,J11,S2*%
X177635000Y-51295000D03*
%TO.P,J11,S3*%
X177635000Y-41135000D03*
%TO.P,J11,S4*%
X187795000Y-41135000D03*
%TD*%
D10*
%TO.P,J6,1,1*%
%TO.N,/VM_X*%
X155400000Y-47500000D03*
D11*
%TO.P,J6,S1*%
%TO.N,N/C*%
X160480000Y-51300000D03*
%TO.P,J6,S2*%
X150320000Y-51300000D03*
%TO.P,J6,S3*%
X150320000Y-41140000D03*
%TO.P,J6,S4*%
X160480000Y-41140000D03*
%TD*%
D12*
%TO.P,J3,1,Pin_1*%
%TO.N,GND*%
X132430000Y-111400000D03*
D13*
%TO.P,J3,2,Pin_2*%
%TO.N,/VM_Z*%
X132430000Y-113940000D03*
%TO.P,J3,3,Pin_3*%
%TO.N,/IN1_Z*%
X132430000Y-116480000D03*
%TO.P,J3,4,Pin_4*%
%TO.N,/IN2_Z*%
X132430000Y-119020000D03*
%TD*%
D14*
%TO.P,A1,3V3,3.3V*%
%TO.N,unconnected-(A1-3.3V-Pad3V3)*%
X138840000Y-96490000D03*
%TO.P,A1,5V1,5V*%
%TO.N,unconnected-(A1-5V-Pad5V1)*%
X138840000Y-99030000D03*
%TO.P,A1,A0,A0*%
%TO.N,unconnected-(A1-PadA0)*%
X138840000Y-111730000D03*
%TO.P,A1,A1,A1*%
%TO.N,unconnected-(A1-PadA1)*%
X138840000Y-114270000D03*
%TO.P,A1,A2,A2*%
%TO.N,unconnected-(A1-PadA2)*%
X138840000Y-116810000D03*
%TO.P,A1,A3,A3*%
%TO.N,unconnected-(A1-PadA3)*%
X138840000Y-119350000D03*
%TO.P,A1,A4,A4*%
%TO.N,unconnected-(A1-PadA4)*%
X138840000Y-121890000D03*
%TO.P,A1,A5,A5*%
%TO.N,unconnected-(A1-PadA5)*%
X138840000Y-124430000D03*
%TO.P,A1,AREF,AREF*%
%TO.N,unconnected-(A1-PadAREF)*%
X187100000Y-84806000D03*
%TO.P,A1,BOOT,BOOT*%
%TO.N,unconnected-(A1-PadBOOT)*%
X138840000Y-88870000D03*
%TO.P,A1,D0,D0/RX*%
%TO.N,unconnected-(A1-D0{slash}RX-PadD0)*%
X187100000Y-124430000D03*
%TO.P,A1,D1,D1/TX*%
%TO.N,unconnected-(A1-D1{slash}TX-PadD1)*%
X187100000Y-121890000D03*
%TO.P,A1,D2,D2*%
%TO.N,unconnected-(A1-PadD2)*%
X187100000Y-119350000D03*
%TO.P,A1,D3,D3*%
%TO.N,/IN1_Z*%
X187100000Y-116810000D03*
%TO.P,A1,D4,D4*%
%TO.N,unconnected-(A1-PadD4)*%
X187100000Y-114270000D03*
%TO.P,A1,D5,D5*%
%TO.N,/IN2_Z*%
X187100000Y-111730000D03*
%TO.P,A1,D6,D6*%
%TO.N,/IN1_Y*%
X187100000Y-109190000D03*
%TO.P,A1,D7,D7*%
%TO.N,unconnected-(A1-PadD7)*%
X187100000Y-106650000D03*
%TO.P,A1,D8,D8*%
%TO.N,unconnected-(A1-PadD8)*%
X187100000Y-102586000D03*
%TO.P,A1,D9,D9*%
%TO.N,/IN2_Y*%
X187100000Y-100046000D03*
%TO.P,A1,D10,D10*%
%TO.N,/IN1_X*%
X187100000Y-97506000D03*
%TO.P,A1,D11,D11*%
%TO.N,/IN2_X*%
X187100000Y-94966000D03*
%TO.P,A1,D12,D12*%
%TO.N,unconnected-(A1-PadD12)*%
X187100000Y-92426000D03*
%TO.P,A1,D13,D13*%
%TO.N,unconnected-(A1-PadD13)*%
X187100000Y-89886000D03*
D15*
%TO.P,A1,GND1,GND*%
%TO.N,GND*%
X187100000Y-87346000D03*
%TO.P,A1,GND2,GND*%
X138840000Y-101570000D03*
%TO.P,A1,GND3,GND*%
%TO.N,unconnected-(A1-GND-PadGND3)*%
X138840000Y-104110000D03*
D14*
%TO.P,A1,IORF,IOREF*%
%TO.N,unconnected-(A1-IOREF-PadIORF)*%
X138840000Y-91410000D03*
%TO.P,A1,RST1,RESET*%
%TO.N,unconnected-(A1-RESET-PadRST1)*%
X138840000Y-93950000D03*
%TO.P,A1,SCL,SCL*%
%TO.N,unconnected-(A1-PadSCL)*%
X187100000Y-79726000D03*
%TO.P,A1,SDA,SDA*%
%TO.N,unconnected-(A1-PadSDA)*%
X187100000Y-82266000D03*
%TO.P,A1,VIN,VIN*%
%TO.N,unconnected-(A1-PadVIN)*%
X138840000Y-106650000D03*
%TD*%
D16*
%TO.N,/IN2_X*%
X135200000Y-56600000D02*
X135200000Y-72820000D01*
X136500000Y-55300000D02*
X135200000Y-56600000D01*
X191300000Y-90766000D02*
X191300000Y-56100000D01*
X190500000Y-55300000D02*
X136500000Y-55300000D01*
X187100000Y-94966000D02*
X191300000Y-90766000D01*
X135200000Y-72820000D02*
X132300000Y-75720000D01*
X191300000Y-56100000D02*
X190500000Y-55300000D01*
%TO.N,/IN2_Y*%
X184200000Y-102946000D02*
X184200000Y-128300000D01*
X184200000Y-128300000D02*
X182300000Y-130200000D01*
X143100000Y-130200000D02*
X141400000Y-128500000D01*
X141400000Y-128500000D02*
X141400000Y-111500000D01*
X187100000Y-100046000D02*
X184200000Y-102946000D01*
X182300000Y-130200000D02*
X143100000Y-130200000D01*
X141400000Y-111500000D02*
X132330000Y-102430000D01*
X132330000Y-102430000D02*
X132330000Y-97420000D01*
%TO.N,/IN1_X*%
X134000000Y-71480000D02*
X134000000Y-56500000D01*
X192500000Y-55500000D02*
X192500000Y-92106000D01*
X132300000Y-73180000D02*
X134000000Y-71480000D01*
X192500000Y-92106000D02*
X187100000Y-97506000D01*
X136200000Y-54300000D02*
X191300000Y-54300000D01*
X191300000Y-54300000D02*
X192500000Y-55500000D01*
X134000000Y-56500000D02*
X136200000Y-54300000D01*
%TO.N,/IN1_Z*%
X133580000Y-125180000D02*
X133580000Y-117630000D01*
X141900000Y-133500000D02*
X133580000Y-125180000D01*
X133580000Y-117630000D02*
X132430000Y-116480000D01*
X188263600Y-117973600D02*
X188263600Y-127636400D01*
X187100000Y-116810000D02*
X188263600Y-117973600D01*
X182400000Y-133500000D02*
X141900000Y-133500000D01*
X188263600Y-127636400D02*
X182400000Y-133500000D01*
%TO.N,/IN1_Y*%
X142500000Y-131900000D02*
X136700000Y-126100000D01*
X131180000Y-96030000D02*
X132330000Y-94880000D01*
X136700000Y-108800000D02*
X131180000Y-103280000D01*
X185400000Y-128500000D02*
X182000000Y-131900000D01*
X131180000Y-103280000D02*
X131180000Y-96030000D01*
X187100000Y-109190000D02*
X185400000Y-110890000D01*
X136700000Y-126100000D02*
X136700000Y-108800000D01*
X182000000Y-131900000D02*
X142500000Y-131900000D01*
X185400000Y-110890000D02*
X185400000Y-128500000D01*
%TO.N,/IN2_Z*%
X190100000Y-114730000D02*
X190100000Y-128300000D01*
X190100000Y-128300000D02*
X183400000Y-135000000D01*
X187100000Y-111730000D02*
X190100000Y-114730000D01*
X183400000Y-135000000D02*
X141200000Y-135000000D01*
X132430000Y-126230000D02*
X132430000Y-119020000D01*
X141200000Y-135000000D02*
X132430000Y-126230000D01*
D17*
%TO.N,/VM_X*%
X134875000Y-52825000D02*
X130500000Y-57200000D01*
X142751873Y-49600000D02*
X139526873Y-52825000D01*
X155400000Y-47500000D02*
X153300000Y-49600000D01*
X139526873Y-52825000D02*
X134875000Y-52825000D01*
X130500000Y-68840000D02*
X132300000Y-70640000D01*
X153300000Y-49600000D02*
X142751873Y-49600000D01*
X130500000Y-57200000D02*
X130500000Y-68840000D01*
%TO.N,/VM_Y*%
X128100000Y-54500000D02*
X128100000Y-88110000D01*
X141800000Y-47500000D02*
X141325945Y-47500000D01*
X128100000Y-88110000D02*
X132330000Y-92340000D01*
X141325945Y-47500000D02*
X140425945Y-48400000D01*
X140425945Y-48400000D02*
X134200000Y-48400000D01*
X134200000Y-48400000D02*
X128100000Y-54500000D01*
%TO.N,/VM_Z*%
X132040000Y-113940000D02*
X132430000Y-113940000D01*
X128400000Y-50400000D02*
X125500000Y-53300000D01*
X125500000Y-53300000D02*
X125500000Y-107400000D01*
X125500000Y-107400000D02*
X132040000Y-113940000D01*
X128400000Y-47500000D02*
X128400000Y-50400000D01*
%TD*%
M02*
