M48
; DRILL file {KiCad 8.0.5} date 2025-03-22T14:23:46-0400
; FORMAT={-:-/ absolute / inch / decimal}
; #@! TF.CreationDate,2025-03-22T14:23:46-04:00
; #@! TF.GenerationSoftware,Kicad,Pcbnew,8.0.5
; #@! TF.FileFunction,Plated,1,2,PTH
FMAT,2
INCH
; #@! TA.AperFunction,Plated,PTH,ComponentDrill
T1C0.0394
; #@! TA.AperFunction,Plated,PTH,ComponentDrill
T2C0.0400
; #@! TA.AperFunction,Plated,PTH,ComponentDrill
T3C0.0512
; #@! TA.AperFunction,Plated,PTH,ComponentDrill
T4C0.0866
%
G90
G05
T1
X5.2087Y-2.6811
X5.2087Y-2.7811
X5.2087Y-2.8811
X5.2087Y-2.9811
X5.2098Y-3.5354
X5.2098Y-3.6354
X5.2098Y-3.7354
X5.2098Y-3.8354
X5.2138Y-4.3858
X5.2138Y-4.4858
X5.2138Y-4.5858
X5.2138Y-4.6858
T2
X5.4661Y-3.4988
X5.4661Y-3.5988
X5.4661Y-3.6988
X5.4661Y-3.7988
X5.4661Y-3.8988
X5.4661Y-3.9988
X5.4661Y-4.0988
X5.4661Y-4.1988
X5.4661Y-4.3988
X5.4661Y-4.4988
X5.4661Y-4.5988
X5.4661Y-4.6988
X5.4661Y-4.7988
X5.4661Y-4.8988
X7.3661Y-3.1388
X7.3661Y-3.2388
X7.3661Y-3.3388
X7.3661Y-3.4388
X7.3661Y-3.5388
X7.3661Y-3.6388
X7.3661Y-3.7388
X7.3661Y-3.8388
X7.3661Y-3.9388
X7.3661Y-4.0388
X7.3661Y-4.1988
X7.3661Y-4.2988
X7.3661Y-4.3988
X7.3661Y-4.4988
X7.3661Y-4.5988
X7.3661Y-4.6988
X7.3661Y-4.7988
X7.3661Y-4.8988
T3
X4.8551Y-1.6197
X4.8551Y-2.0197
X5.2551Y-1.6197
X5.2551Y-2.0197
X5.3827Y-1.6197
X5.3827Y-2.0197
X5.7827Y-1.6197
X5.7827Y-2.0197
X5.9181Y-1.6197
X5.9181Y-2.0197
X6.3181Y-1.6197
X6.3181Y-2.0197
X6.462Y-1.6195
X6.462Y-2.0195
X6.862Y-1.6195
X6.862Y-2.0195
X6.9935Y-1.6195
X6.9935Y-2.0195
X7.3935Y-1.6195
X7.3935Y-2.0195
X7.525Y-1.6195
X7.525Y-2.0195
X7.925Y-1.6195
X7.925Y-2.0195
T4
X5.0551Y-1.8701
X5.5827Y-1.8701
X6.1181Y-1.8701
X6.662Y-1.8699
X7.1935Y-1.8699
X7.725Y-1.8699
M30
