%TF.GenerationSoftware,KiCad,Pcbnew,8.0.5*%
%TF.CreationDate,2025-03-21T11:48:15-04:00*%
%TF.ProjectId,ArduinoRev4Hat,41726475-696e-46f5-9265-76344861742e,rev?*%
%TF.SameCoordinates,Original*%
%TF.FileFunction,Profile,NP*%
%FSLAX46Y46*%
G04 Gerber Fmt 4.6, Leading zero omitted, Abs format (unit mm)*
G04 Created by KiCad (PCBNEW 8.0.5) date 2025-03-21 11:48:15*
%MOMM*%
%LPD*%
G01*
G04 APERTURE LIST*
%TA.AperFunction,Profile*%
%ADD10C,0.050000*%
%TD*%
%TA.AperFunction,Profile*%
%ADD11C,0.200000*%
%TD*%
G04 APERTURE END LIST*
D10*
X189200000Y-56450000D02*
X183500000Y-56450000D01*
X138800000Y-56450000D02*
X183500000Y-56450000D01*
X144100000Y-124450000D02*
X144100000Y-129000000D01*
X144100000Y-84300000D02*
X136700000Y-84300000D01*
X209857359Y-131807359D02*
G75*
G02*
X203857359Y-131807359I-3000000J0D01*
G01*
X203857359Y-131807359D02*
G75*
G02*
X209857359Y-131807359I3000000J0D01*
G01*
X120642641Y-131807359D02*
G75*
G02*
X114642641Y-131807359I-3000000J0D01*
G01*
X114642641Y-131807359D02*
G75*
G02*
X120642641Y-131807359I3000000J0D01*
G01*
X136700000Y-73650000D02*
X136700000Y-56450000D01*
X144100000Y-129000000D02*
X181900000Y-129000000D01*
D11*
X113400000Y-31950000D02*
X211100000Y-31950000D01*
X211100000Y-136050000D01*
X113400000Y-136050000D01*
X113400000Y-31950000D01*
D10*
X144100000Y-85100000D02*
X144100000Y-84300000D01*
X136700000Y-56450000D02*
X138800000Y-56450000D01*
X120642641Y-46192641D02*
G75*
G02*
X114642641Y-46192641I-3000000J0D01*
G01*
X114642641Y-46192641D02*
G75*
G02*
X120642641Y-46192641I3000000J0D01*
G01*
X144100000Y-85375000D02*
X144100000Y-85100000D01*
X136700000Y-84300000D02*
X136700000Y-73650000D01*
X181900000Y-124350000D02*
X181900000Y-73650000D01*
X181900000Y-73650000D02*
X187100000Y-73650000D01*
X144100000Y-124450000D02*
X144100000Y-85375000D01*
X181900000Y-124350000D02*
X181900000Y-129000000D01*
X189200000Y-73650000D02*
X189200000Y-56450000D01*
X187100000Y-73650000D02*
X189200000Y-73650000D01*
D11*
X209857359Y-46192641D02*
G75*
G02*
X203857359Y-46192641I-3000000J0D01*
G01*
X203857359Y-46192641D02*
G75*
G02*
X209857359Y-46192641I3000000J0D01*
G01*
M02*
