%TF.GenerationSoftware,KiCad,Pcbnew,8.0.5*%
%TF.CreationDate,2025-03-21T11:48:15-04:00*%
%TF.ProjectId,ArduinoRev4Hat,41726475-696e-46f5-9265-76344861742e,rev?*%
%TF.SameCoordinates,Original*%
%TF.FileFunction,Soldermask,Top*%
%TF.FilePolarity,Negative*%
%FSLAX46Y46*%
G04 Gerber Fmt 4.6, Leading zero omitted, Abs format (unit mm)*
G04 Created by KiCad (PCBNEW 8.0.5) date 2025-03-21 11:48:15*
%MOMM*%
%LPD*%
G01*
G04 APERTURE LIST*
%ADD10C,3.420000*%
%ADD11C,2.154000*%
%ADD12R,1.700000X1.700000*%
%ADD13O,1.700000X1.700000*%
%ADD14O,1.727200X1.727200*%
%ADD15R,1.727200X1.727200*%
G04 APERTURE END LIST*
D10*
%TO.C,J7*%
X128400000Y-47500000D03*
D11*
X133480000Y-51300000D03*
X123320000Y-51300000D03*
X123320000Y-41140000D03*
X133480000Y-41140000D03*
%TD*%
D12*
%TO.C,J5*%
X132300000Y-68100000D03*
D13*
X132300000Y-70640000D03*
X132300000Y-73180000D03*
X132300000Y-75720000D03*
%TD*%
D10*
%TO.C,J9*%
X196215000Y-47495000D03*
D11*
X201295000Y-51295000D03*
X191135000Y-51295000D03*
X191135000Y-41135000D03*
X201295000Y-41135000D03*
%TD*%
D10*
%TO.C,J10*%
X169215000Y-47495000D03*
D11*
X174295000Y-51295000D03*
X164135000Y-51295000D03*
X164135000Y-41135000D03*
X174295000Y-41135000D03*
%TD*%
D12*
%TO.C,J4*%
X132330000Y-89800000D03*
D13*
X132330000Y-92340000D03*
X132330000Y-94880000D03*
X132330000Y-97420000D03*
%TD*%
D10*
%TO.C,J8*%
X141800000Y-47500000D03*
D11*
X146880000Y-51300000D03*
X136720000Y-51300000D03*
X136720000Y-41140000D03*
X146880000Y-41140000D03*
%TD*%
D10*
%TO.C,J11*%
X182715000Y-47495000D03*
D11*
X187795000Y-51295000D03*
X177635000Y-51295000D03*
X177635000Y-41135000D03*
X187795000Y-41135000D03*
%TD*%
D10*
%TO.C,J6*%
X155400000Y-47500000D03*
D11*
X160480000Y-51300000D03*
X150320000Y-51300000D03*
X150320000Y-41140000D03*
X160480000Y-41140000D03*
%TD*%
D12*
%TO.C,J3*%
X132430000Y-111400000D03*
D13*
X132430000Y-113940000D03*
X132430000Y-116480000D03*
X132430000Y-119020000D03*
%TD*%
D14*
%TO.C,A1*%
X138840000Y-96490000D03*
X138840000Y-99030000D03*
X138840000Y-111730000D03*
X138840000Y-114270000D03*
X138840000Y-116810000D03*
X138840000Y-119350000D03*
X138840000Y-121890000D03*
X138840000Y-124430000D03*
X187100000Y-84806000D03*
X138840000Y-88870000D03*
X187100000Y-124430000D03*
X187100000Y-121890000D03*
X187100000Y-119350000D03*
X187100000Y-116810000D03*
X187100000Y-114270000D03*
X187100000Y-111730000D03*
X187100000Y-109190000D03*
X187100000Y-106650000D03*
X187100000Y-102586000D03*
X187100000Y-100046000D03*
X187100000Y-97506000D03*
X187100000Y-94966000D03*
X187100000Y-92426000D03*
X187100000Y-89886000D03*
D15*
X187100000Y-87346000D03*
X138840000Y-101570000D03*
X138840000Y-104110000D03*
D14*
X138840000Y-91410000D03*
X138840000Y-93950000D03*
X187100000Y-79726000D03*
X187100000Y-82266000D03*
X138840000Y-106650000D03*
%TD*%
M02*
